<?xml version="1.0" encoding="UTF-8" standalone="no"?><svg xmlns:android="http://schemas.android.com/apk/res/android" height="80" width="80" xmlns="http://www.w3.org/2000/svg">
    <path d="M40,40m-40,0a40,40 0,1 1,80 0a40,40 0,1 1,-80 0" fill="#920505"/>
    <path d="M59.6129,15H20.3875C17.4166,15 15,17.4166 15,20.3871V59.6129C15,62.5834 17.4166,65 20.3875,65H59.6129C62.5834,65 65,62.5834 65,59.6129V20.3871C65,17.4166 62.5834,15 59.6129,15ZM56.6332,42.6512L41.0357,58.2487C40.7496,58.5349 40.375,58.6779 40,58.6779C39.625,58.6779 39.25,58.5349 38.9643,58.2487L23.3668,42.6512C18.495,37.7795 18.495,29.8529 23.3668,24.9815C25.7265,22.6218 28.8641,21.3221 32.2012,21.3221C35.0714,21.3221 37.7932,22.283 40,24.053C42.2072,22.283 44.929,21.3221 47.7988,21.3221C51.1359,21.3221 54.2735,22.6218 56.6332,24.9815C61.505,29.8529 61.505,37.7795 56.6332,42.6512Z" fill="#ffffff"/>
    <path d="M47.7988,24.2518C45.2441,24.2518 42.8423,25.2467 41.0357,27.0533C40.761,27.328 40.3883,27.4821 40,27.4821C39.6113,27.4821 39.239,27.328 38.9643,27.0533C37.1581,25.2467 34.7563,24.2518 32.2012,24.2518C29.6465,24.2518 27.2448,25.2467 25.4382,27.0533C21.7089,30.7826 21.7089,36.8503 25.4382,40.5795L40,55.1413L54.5618,40.5795C58.2911,36.8503 58.2911,30.7822 54.5618,27.0533C52.7552,25.2467 50.3535,24.2518 47.7988,24.2518V24.2518ZM47.3956,38.6374L40.0095,49.0542C39.7276,49.4513 39.2775,49.6718 38.814,49.6718C38.6191,49.6718 38.4215,49.6329 38.2334,49.5517C37.5986,49.2774 37.242,48.5961 37.3785,47.9178L38.5161,42.2664L35.7626,42.2854C35.7592,42.2854 35.7558,42.2854 35.7527,42.2854C35.2824,42.2854 34.8402,42.0596 34.5648,41.6777C34.2875,41.2936 34.2131,40.7988 34.3653,40.3499L37.4274,31.3228C37.6288,30.728 38.1869,30.3283 38.8144,30.3283H44.6539C45.1586,30.3283 45.6282,30.5884 45.8956,31.0164C46.1634,31.4444 46.192,31.9804 45.9711,32.4344L44.0764,36.3253H46.2008C46.7486,36.3253 47.2506,36.6313 47.502,37.1177C47.7534,37.6044 47.7126,38.1907 47.3956,38.6374V38.6374Z" fill="#ffffff"/>
</svg>