<?xml version="1.0" encoding="UTF-8" standalone="no"?><svg xmlns:android="http://schemas.android.com/apk/res/android" height="64" width="64" xmlns="http://www.w3.org/2000/svg">
  <path d="M32,0L32,0A32,32 0,0 1,64 32L64,32A32,32 0,0 1,32 64L32,64A32,32 0,0 1,0 32L0,32A32,32 0,0 1,32 0z" fill="#bc0000"/>
  <path d="M49.93,22.8H27.56c-1.09,0 -2.92,0.41 -2.92,3.22v4.3H52.85V26C52.85,23.22 51,22.8 49.93,22.8Z" fill="#fff"/>
  <path d="M17.45,32.46l-4.25,0l0,-15.03l-2.82,0l0,29.14l2.82,0l0,-7.52l37.6,0l0,7.51l2.83,0l0,-14.1l-36.18,0z" fill="#fff"/>
  <path d="M19,26.56m-3.94,0a3.94,3.94 0,1 1,7.88 0a3.94,3.94 0,1 1,-7.88 0" fill="#fff"/>
</svg>