<?xml version="1.0" encoding="UTF-8" standalone="no"?><svg xmlns:android="http://schemas.android.com/apk/res/android" height="80" width="80" xmlns="http://www.w3.org/2000/svg">
    <path d="M40,40m-40,0a40,40 0,1 1,80 0a40,40 0,1 1,-80 0" fill="#33B9A9"/>
    <path d="M55.8679,43.2661V58.2511V58.3008H65V48.5447L55.8679,43.2661Z" fill="#ffffff"/>
    <path d="M15,58.3008H24.1321V58.2511V43.2545L15,48.5447V58.3008Z" fill="#ffffff"/>
    <path d="M25.745,38.1547V58.2512H35.1074V49.731C35.1074,47.0587 37.2739,44.8923 39.9461,44.8923H40.0539C42.7261,44.8923 44.8926,47.0587 44.8926,49.731V58.2512H54.255V38.1547L40,26.3302L25.745,38.1547Z" fill="#ffffff"/>
    <path d="M19.4358,36.0624L21.8545,38.9976L40,24.0457L58.1455,38.9976L60.5642,36.0624L41.129,20.0479V16.4842H44.6179V14.2262H41.129V11.6992H38.871V14.2262H35.3821V16.4842H38.871V20.0479L19.4358,36.0624Z" fill="#ffffff"/>
</svg>