<?xml version="1.0" encoding="UTF-8" standalone="no"?><svg xmlns:android="http://schemas.android.com/apk/res/android" height="64" width="64" xmlns="http://www.w3.org/2000/svg">
  <path d="M32,0L32,0A32,32 0,0 1,64 32L64,32A32,32 0,0 1,32 64L32,64A32,32 0,0 1,0 32L0,32A32,32 0,0 1,32 0z" fill="#999"/>
  <path d="M32,11.06A20.94,20.94 0,1 0,52.94 32,20.93 20.93,0 0,0 32,11.06ZM45.83,34.23a1.45,1.45 0,0 1,-1.45 1.45h-8.7v8.7a1.45,1.45 0,0 1,-1.45 1.45H29.77a1.45,1.45 0,0 1,-1.45 -1.45v-8.7h-8.7a1.45,1.45 0,0 1,-1.45 -1.45V29.77a1.45,1.45 0,0 1,1.45 -1.45h8.7v-8.7a1.45,1.45 0,0 1,1.45 -1.45h4.46a1.45,1.45 0,0 1,1.45 1.45v8.7h8.7a1.45,1.45 0,0 1,1.45 1.45Z" fill="#fff"/>
</svg>