<?xml version="1.0" encoding="UTF-8" standalone="no"?><svg xmlns:android="http://schemas.android.com/apk/res/android" height="80" width="80" xmlns="http://www.w3.org/2000/svg">
    <path d="M40,40m-40,0a40,40 0,1 1,80 0a40,40 0,1 1,-80 0" fill="#FE2E00"/>
    <path d="M39.9991,21.9858C38.3139,21.9858 36.725,23.6318 35.5289,24.8279L20.6761,39.6879V56.7223C20.6761,58.5861 22.1899,60.0999 24.0572,60.0999H55.9481C57.8119,60.0999 59.3257,58.5861 59.3257,56.7223V39.6879L44.4692,24.8279C43.2767,23.6318 41.6843,21.9858 39.9991,21.9858ZM50.3069,47.1215H43.4695V53.9588H36.5287V47.1215H29.6878V40.1842H36.5287V33.3433H43.4695V40.1842H50.3069V47.1215Z" fill="#ffffff"/>
    <path d="M64.1958,32.7827L47.3506,15.9483C43.4196,12.0172 36.5787,12.0172 32.6405,15.9483L15.806,32.7827C14.7313,33.8574 14.7313,35.5926 15.806,36.6709C16.8414,37.7063 18.6516,37.7063 19.6871,36.6709L36.5251,19.8293C38.3817,17.9727 41.6165,17.9727 43.4695,19.8293L60.3076,36.6709C60.8253,37.1886 61.518,37.4707 62.2463,37.4707C62.9782,37.4707 63.6709,37.1886 64.1958,36.6709C65.2669,35.5926 65.2669,33.8574 64.1958,32.7827Z" fill="#ffffff"/>
</svg>