<?xml version="1.0" encoding="UTF-8" standalone="no"?><svg xmlns:android="http://schemas.android.com/apk/res/android" height="80" width="80" xmlns="http://www.w3.org/2000/svg">
    <path d="M40,40m-40,0a40,40 0,1 1,80 0a40,40 0,1 1,-80 0" fill="#F7BA1F"/>
    <path d="M45.1821,27.1902V34.203C45.1821,34.738 44.7484,35.1716 44.2135,35.1716H35.7865C35.2516,35.1716 34.8179,34.738 34.8179,34.203V27.1902H27.2917V48.8195H34.8179V41.797C34.8179,41.2621 35.2516,40.8284 35.7865,40.8284H44.2135C44.7484,40.8284 45.1821,41.2621 45.1821,41.797V48.8195H52.7082V27.1902H45.1821Z" fill="#ffffff"/>
    <path d="M40,13C26.1929,13 15,24.1929 15,38C15,51.8071 26.1929,63 40,63C53.8071,63 65,51.8071 65,38C64.984,24.1995 53.8005,13.016 40,13ZM54.6455,27.0256V48.9744C54.6455,49.9533 53.8518,50.747 52.8729,50.747H45.0174C44.0385,50.747 43.2449,49.9533 43.2449,48.9744V42.7656H36.7551V48.9841C36.7551,49.963 35.9615,50.7567 34.9826,50.7567H27.1271C26.1482,50.7567 25.3545,49.963 25.3545,48.9841V27.0256C25.3545,26.0467 26.1482,25.253 27.1271,25.253H34.9826C35.9615,25.253 36.7551,26.0467 36.7551,27.0256V33.2441H43.2449V27.0256C43.2449,26.0467 44.0385,25.253 45.0174,25.253H52.8729C53.8518,25.253 54.6455,26.0465 54.6455,27.0256Z" fill="#ffffff"/>
</svg>