<?xml version="1.0" encoding="UTF-8" standalone="no"?><svg xmlns:android="http://schemas.android.com/apk/res/android" height="64" width="64" xmlns="http://www.w3.org/2000/svg">
  <path d="M32,0L32,0A32,32 0,0 1,64 32L64,32A32,32 0,0 1,32 64L32,64A32,32 0,0 1,0 32L0,32A32,32 0,0 1,32 0z" fill="#603813"/>
  <path d="M29,33.05a2,2 0,1 1,-2 -2A2,2 0,0 1,29 33.05ZM37,31.05a2,2 0,1 0,2 2A2,2 0,0 0,37 31.09ZM45.39,39.05v-0.22a19.59,19.59 0,0 1,-0.79 1.88,10.57 10.57,0 0,0 0.32,1.47 9.8,9.8 0,0 0,4.65 3.25,5.31 5.31,0 0,1 -2.84,0.36 8.45,8.45 0,0 0,4 2.78c-4.2,3.79 -11.12,3.87 -16,0.93a9,9 0,0 1,-5.42 0c-4.84,2.94 -11.76,2.86 -16,-0.93a8.57,8.57 0,0 0,4 -2.85,5.35 5.35,0 0,1 -2.28,-0.41 10.1,10.1 0,0 0,3.72 -2.2,11.75 11.75,0 0,0 0.63,-2.4 19.59,19.59 0,0 1,-0.79 -1.88v0.22L16.27,39.05a3.38,3.38 0,0 1,-3.39 -3.39L12.88,32a3.4,3.4 0,0 1,1.77 -3c0,-5.3 1.58,-9.43 4.6,-12.29S26.53,12.4 32,12.4s9.76,1.44 12.75,4.28 4.56,7 4.6,12.29a3.4,3.4 0,0 1,1.77 3v3.73a3.38,3.38 0,0 1,-3.39 3.39ZM43.97,33.05c0,-0.88 0,-1.7 -0.11,-2.49 -1.53,-1.4 -4.33,-2.46 -7.86,-2.83a4.26,4.26 0,0 1,1.3 2.13c-2.05,-1.5 -6.36,-2 -7.79,-3.58h0c-2.27,-1.5 -2.87,-3.66 -2.89,-2.77 -0.09,4.28 -3.12,7.62 -6.49,8.09 0,0.47 0,0.95 0,1.45A15.37,15.37 0,0 0,20.85 38c1.9,2.29 5,2.93 7.79,3.1a3.53,3.53 0,0 1,3 -1.39c1.82,0 3.29,1.05 3.29,2.34s-1.47,2.34 -3.29,2.34a3.47,3.47 0,0 1,-3.07 -1.49,16.34 16.34,0 0,1 -6,-1.34c2.67,3.93 6.8,6 9.38,6C36.05,47.57 43.94,42.45 43.94,33.07ZM46,28.57h1.3c-0.21,-9.25 -5.49,-14.14 -15.3,-14.14S16.91,19.32 16.7,28.57L18,28.57a16.32,16.32 0,0 1,3 -7.65c2.44,-3.15 6.13,-4.74 11,-4.74s8.54,1.59 11,4.74A16.32,16.32 0,0 1,46 28.57Z" fill="#fff"/>
</svg>