<?xml version="1.0" encoding="UTF-8" standalone="no"?><svg xmlns:android="http://schemas.android.com/apk/res/android" height="80" width="80" xmlns="http://www.w3.org/2000/svg">
    <path d="M40,40m-40,0a40,40 0,1 1,80 0a40,40 0,1 1,-80 0" fill="#F17ADE"/>
    <path d="M63.12,29.7508C64.2312,29.7508 65,28.7576 65,27.6465V26.2155C65,25.1044 64.1827,23.998 63.0982,23.7569L47.5301,20.2874C46.1439,17.6094 43.3569,15.7778 40.1333,15.7778C36.9135,15.7778 34.1256,17.6052 32.738,20.2783L16.9987,23.7584C15.914,23.9986 15,25.1044 15,26.2155V27.6465C15,28.7576 15.9652,29.7508 17.0763,29.7508H17.862V57.3603H16.4029C15.6591,57.3603 15,57.9633 15,58.7071V58.8754C15,59.6192 15.6591,60.2222 16.4029,60.2222H63.7093C64.453,60.2222 65,59.6192 65,58.8754V58.7071C65,57.9633 64.453,57.3603 63.7093,57.3603H62.3064V29.7508H63.12V29.7508ZM41.3902,28.7963C41.3902,26.9165 40.1369,25.0951 40.1369,25.0951C40.1369,25.0951 38.8838,26.9165 38.8838,28.7963C35.718,28.7963 35.0914,25.6633 36.3444,23.7835C37.0199,22.7707 38.4133,21.6261 38.3785,19.6997C38.3702,19.248 38.8476,18.9513 39.2512,19.1545C39.7618,19.4114 40.3572,19.8136 40.7487,20.4071C42.0931,22.4441 41.4158,24.433 41.4158,24.433C41.4158,24.433 42.2707,23.9461 42.9934,23.0845C43.2753,22.7485 43.8111,22.8185 43.9983,23.2151C44.8877,25.1012 45.083,28.7963 41.3902,28.7963V28.7963ZM31.8069,50.5C31.8069,49.7328 32.4286,49.1111 33.1958,49.1111C33.963,49.1111 34.5847,49.7328 34.5847,50.5C34.5847,51.2672 33.963,51.8889 33.1958,51.8889C32.4286,51.8889 31.8069,51.2672 31.8069,50.5ZM47.0005,51.8889C46.2333,51.8889 45.6116,51.2672 45.6116,50.5C45.6116,49.7328 46.2333,49.1111 47.0005,49.1111C47.7677,49.1111 48.3894,49.7328 48.3894,50.5C48.3894,51.2672 47.7677,51.8889 47.0005,51.8889ZM42.9461,51.8047H37.3906V49.1111H42.9461V51.8047ZM46.9865,46.4175H41.431V40.8619H46.9865V46.4175ZM38.569,46.4175H33.0135V40.8619H38.569V46.4175ZM33.0135,54.6667H47.1549V57.3603H33.0135V54.6667ZM53.8889,57.3603H49.8485V54.6645C50.6902,54.6419 51.1953,54.0306 51.1953,53.2778V53.1936C51.1953,52.4406 50.6902,51.8293 49.8485,51.8069V40.0202C49.8485,38.9091 48.9955,38 47.8843,38H42.7778V35.138H37.2222V38H32.3961C31.285,38 30.3199,38.9091 30.3199,40.0202V51.8069C29.6465,51.8295 28.9731,52.4407 28.9731,53.1936V53.2778C28.9731,54.0308 29.6465,54.6421 30.3199,54.6645V57.3603H26.2795V29.7508H34.0067C35.5298,31.4064 37.7135,32.4444 40.1404,32.4444C42.5672,32.4444 44.751,31.4064 46.2741,29.7508H53.8889V57.3603Z" fill="#ffffff"/>
</svg>