<?xml version="1.0" encoding="UTF-8" standalone="no"?><svg xmlns:android="http://schemas.android.com/apk/res/android" height="80" width="80" xmlns="http://www.w3.org/2000/svg">
    <path d="M40,40m-40,0a40,40 0,1 1,80 0a40,40 0,1 1,-80 0" fill="#A31212"/>
    <path d="M56.8751,31.6903H54.4337V42.999H56.8751C57.6842,42.999 58.3399,42.3432 58.3399,41.5341V33.1552C58.3399,32.3464 57.6842,31.6903 56.8751,31.6903Z" fill="#ffffff"/>
    <path d="M21.6406,33.1552V41.5341C21.6406,42.3432 22.2964,42.999 23.1055,42.999H25.5469V31.6903H23.1055C22.2964,31.6903 21.6406,32.3464 21.6406,33.1552Z" fill="#ffffff"/>
    <path d="M51.1233,56.141H28.8577C27.2395,56.141 25.928,57.4525 25.928,59.0707V61.0234C25.928,61.5628 26.3651,62 26.9045,62H53.0764C53.6158,62 54.053,61.5628 54.053,61.0234V59.0707C54.053,57.4525 52.7411,56.141 51.1233,56.141V56.141Z" fill="#ffffff"/>
    <path d="M52.6858,22.5038H50.8723C49.6039,19.2495 46.5502,16.8813 42.9202,16.6116V14.9297C42.9202,13.3115 41.6083,12 39.9905,12C38.3723,12 37.0608,13.3115 37.0608,14.9297V16.6116C33.4307,16.8813 30.3771,19.2495 29.1083,22.5038H27.2952C26.4861,22.5038 25.8303,23.1599 25.8303,23.9686C25.8303,24.7777 26.4861,25.4335 27.2952,25.4335H52.6858C53.4945,25.4335 54.1506,24.7777 54.1506,23.9686C54.1506,23.1595 53.4945,22.5038 52.6858,22.5038Z" fill="#ffffff"/>
    <path d="M51.1233,53.2113C51.2514,53.2113 51.3781,53.2167 51.504,53.2251V28.3632H28.4766V53.2251C28.6024,53.2167 28.7295,53.2113 28.8577,53.2113H51.1233ZM39.9905,31.6903C43.1082,31.6903 45.6446,34.2271 45.6446,37.3445C45.6446,40.4622 43.1082,42.999 39.9905,42.999C36.8723,42.999 34.3359,40.4622 34.3359,37.3449C34.3359,34.2271 36.8723,31.6903 39.9905,31.6903V31.6903Z" fill="#ffffff"/>
    <path d="M39.9905,40.0693C41.4927,40.0693 42.7149,38.847 42.7149,37.3448C42.7149,35.8422 41.4927,34.6204 39.9905,34.6204C38.4879,34.6204 37.2656,35.8426 37.2656,37.3448C37.2656,38.847 38.4879,40.0693 39.9905,40.0693Z" fill="#ffffff"/>
</svg>