<?xml version="1.0" encoding="UTF-8" standalone="no"?><svg xmlns:android="http://schemas.android.com/apk/res/android" height="80" width="80" xmlns="http://www.w3.org/2000/svg">
    <path d="M40,40m-40,0a40,40 0,1 1,80 0a40,40 0,1 1,-80 0" fill="#3F32D5"/>
    <path d="M62.8889,25.75L62.9306,25.7083L52.5833,15.3889L49.6389,18.3333L55.5,24.1944C52.8889,25.1944 51.0277,27.7083 51.0277,30.6667C51.0277,34.5 54.1388,37.6111 57.9721,37.6111C58.9582,37.6111 59.9027,37.4027 60.7499,37.0277V57.0555C60.75,58.5833 59.5,59.8333 57.9723,59.8333C56.4445,59.8333 55.1945,58.5833 55.1945,57.0556V44.5556C55.1945,41.4862 52.7085,39 49.6389,39H46.8612V19.5556C46.8611,16.4861 44.375,14 41.3056,14H24.6389C21.5694,14 19.0833,16.4861 19.0833,19.5556V64H46.8611V43.1667H51.0277V57.0556C51.0277,60.8889 54.1388,64 57.9721,64C61.8055,64 64.9165,60.8889 64.9165,57.0556V30.6667C64.9167,28.75 64.1389,27.0139 62.8889,25.75ZM41.3056,33.4444H24.6389V19.5556H41.3056V33.4444ZM57.9723,33.4444C56.4445,33.4444 55.1945,32.1944 55.1945,30.6667C55.1945,29.1389 56.4445,27.8889 57.9723,27.8889C59.5,27.8889 60.75,29.1389 60.75,30.6667C60.75,32.1944 59.5,33.4444 57.9723,33.4444Z" fill="#ffffff"/>
</svg>