<?xml version="1.0" encoding="UTF-8" standalone="no"?><svg xmlns:android="http://schemas.android.com/apk/res/android" height="80" width="80" xmlns="http://www.w3.org/2000/svg">
    <path d="M40,40m-40,0a40,40 0,1 1,80 0a40,40 0,1 1,-80 0" fill="#FF6060"/>
    <path d="M26.8401,30.7386H53.1589C53.7636,30.7386 54.2556,30.2475 54.2556,29.6419C54.2556,29.0391 53.7636,28.5462 53.1589,28.5462H53.1026C52.6068,22.5275 48.0595,17.6656 42.1929,16.6806V15.1126H40.2737V11.2742C40.2737,11.1249 40.1507,11 39.9995,11C39.8483,11 39.7253,11.1249 39.7253,11.2742V15.1117H37.8071V16.6797C31.9405,17.6647 27.3941,22.5265 26.8955,28.5452H26.8401C26.2355,28.5452 25.7444,29.0382 25.7444,29.641C25.7444,30.2475 26.2355,30.7386 26.8401,30.7386Z" fill="#ffffff"/>
    <path d="M58.6424,58.2592H57.2715V45.6472H58.6424C59.401,45.6472 60.0132,45.0369 60.0132,44.2763C60.0132,43.5223 59.401,42.9055 58.6424,42.9055H21.3576C20.6008,42.9055 19.9868,43.5223 19.9868,44.2763C19.9868,45.0369 20.6008,45.6472 21.3576,45.6472H22.7285V58.2592H21.3576C20.6008,58.2592 19.9868,58.8751 19.9868,59.6291C19.9868,60.3906 20.6008,60.9999 21.3576,60.9999H58.6424C59.401,60.9999 60.0132,60.3906 60.0132,59.6291C60.0132,58.877 59.401,58.2592 58.6424,58.2592ZM53.4331,58.2592H51.1308V45.6472H53.4331V58.2592V58.2592ZM38.8484,45.6472H41.1507V58.2592H38.8484V45.6472ZM35.0109,58.2592H32.7076V45.6472H35.0109V58.2592ZM44.99,45.6472H47.2923V58.2592H44.99V45.6472ZM26.566,45.6472H28.8683V58.2592H26.566V45.6472Z" fill="#ffffff"/>
    <path d="M25.1961,35.3995H26.5773C26.5773,35.4202 26.566,35.4389 26.566,35.454V41.3712H29.3077V35.454C29.3077,35.4342 29.2974,35.4145 29.2974,35.3995H30.5997C30.5997,35.4202 30.5894,35.4389 30.5894,35.454V41.3712H33.3302V35.454C33.3302,35.4342 33.3199,35.4145 33.3199,35.3995H34.6222C34.6222,35.4202 34.6118,35.4389 34.6118,35.454V41.3712H37.3536V35.454C37.3536,35.4342 37.3423,35.4145 37.3423,35.3995H38.6446C38.6446,35.4202 38.6334,35.4389 38.6334,35.454V41.3712H41.3751V35.454C41.3751,35.4342 41.3638,35.4145 41.3638,35.3995H42.6662C42.6662,35.4202 42.6549,35.4389 42.6549,35.454V41.3712H45.3966V35.454C45.3966,35.4342 45.3863,35.4145 45.3863,35.3995H46.6886C46.6886,35.4202 46.6773,35.4389 46.6773,35.454V41.3712H49.4191V35.454C49.4191,35.4342 49.4078,35.4145 49.4078,35.3995H50.7101C50.7101,35.4202 50.6998,35.4389 50.6998,35.454V41.3712H53.4415V35.454C53.4415,35.4342 53.4303,35.4145 53.4303,35.3995H54.8115C55.5701,35.3995 56.1823,34.7882 56.1823,34.0286C56.1823,33.2709 55.5701,32.6578 54.8115,32.6578H25.2045C24.4487,32.6578 23.8336,33.2709 23.8336,34.0286C23.8336,34.7845 24.4383,35.3995 25.1961,35.3995Z" fill="#ffffff"/>
</svg>