<?xml version="1.0" encoding="UTF-8" standalone="no"?><svg xmlns:android="http://schemas.android.com/apk/res/android" height="80" width="80" xmlns="http://www.w3.org/2000/svg">
    <path d="M40,40m-40,0a40,40 0,1 1,80 0a40,40 0,1 1,-80 0" fill="#B345B6"/>
    <path d="M40,21.4363C38.3148,21.4363 36.7259,23.0823 35.5298,24.2784L20.6769,39.1384V56.1728C20.6769,58.0366 22.1908,59.5504 24.0581,59.5504H55.949C57.8127,59.5504 59.3266,58.0366 59.3266,56.1728V39.1384L44.4701,24.2784C43.2776,23.0823 41.6852,21.4363 40,21.4363ZM50.3078,46.572H43.4704V53.4093H36.5295V46.572H29.6886V39.6347H36.5295V32.7938H43.4704V39.6347H50.3078V46.572Z" fill="#ffffff"/>
    <path d="M64.1966,32.2332L47.3515,15.3988C43.4204,11.4677 36.5795,11.4677 32.6414,15.3988L15.8069,32.2332C14.7322,33.3079 14.7322,35.0431 15.8069,36.1214C16.8423,37.1568 18.6525,37.1568 19.6879,36.1214L36.526,19.2798C38.3826,17.4232 41.6174,17.4232 43.4704,19.2798L60.3085,36.1214C60.8262,36.6391 61.5188,36.9212 62.2472,36.9212C62.9791,36.9212 63.6718,36.6391 64.1966,36.1214C65.2678,35.0431 65.2678,33.3079 64.1966,32.2332Z" fill="#ffffff"/>
</svg>