<?xml version="1.0" encoding="UTF-8" standalone="no"?><svg xmlns:android="http://schemas.android.com/apk/res/android" height="64" width="64" xmlns="http://www.w3.org/2000/svg">
  <path d="M32,0L32,0A32,32 0,0 1,64 32L64,32A32,32 0,0 1,32 64L32,64A32,32 0,0 1,0 32L0,32A32,32 0,0 1,32 0z" fill="#1460ac"/>
  <path d="M45.89,30.12l0,3.57l-3.72,0l0,10.8l3.76,0l0,5.57l-2.38,0l0,-3.19l-23.1,0l0,3.19l-2.38,0l0,-5.57l3.45,0l0,-10.8l-3.41,0l0,-3.57l-4.9,0l0,19.94l-1.49,0l0,2.38l40.56,0l0,-2.38l-1.5,0l0,-19.94l-4.89,0" fill="#fff"/>
  <path d="M28.65,33.69h6.39v10.8h-6.39z" fill="#fff"/>
  <path d="M23.89,33.69h2.38v10.8h-2.38z" fill="#fff"/>
  <path d="M37.41,33.69h2.38v10.8h-2.38z" fill="#fff"/>
  <path d="M33.19,22.65l0,-4.17l6.86,0l0,-6.61l-9.24,0l0,10.78l-10.33,5.52l0,3.14l23.04,0l0,-3.14l-10.33,-5.52z" fill="#fff"/>
</svg>