<?xml version="1.0" encoding="UTF-8" standalone="no"?><svg xmlns:android="http://schemas.android.com/apk/res/android" height="80" width="80" xmlns="http://www.w3.org/2000/svg">
    <path d="M40,40m-40,0a40,40 0,1 1,80 0a40,40 0,1 1,-80 0" fill="#B7004D"/>
    <path d="M48.9268,51.2839V29.8556H41.7854V51.2839H48.9268ZM59.6429,51.2839V29.8556H52.4995V51.2839H59.6429ZM63.2156,25.6494L40.0029,12L16.7863,25.6494C16.7863,25.6494 15.1849,27.0935 16.7863,28.0693H63.2156C63.2156,28.0693 64.5141,27.0069 63.2156,25.6494ZM38.2166,51.2839V29.8556H31.0732V51.2839H38.2166ZM27.5025,51.2839V29.8556H20.3571V51.2839H27.5025ZM61.6496,53.806L18.9248,53.926L15.002,59.051V62H64.998V59.051L61.6496,53.806Z" fill="#ffffff"/>
</svg>