<?xml version="1.0" encoding="UTF-8" standalone="no"?><svg xmlns:android="http://schemas.android.com/apk/res/android" height="64" width="64" xmlns="http://www.w3.org/2000/svg">
  <path d="M32,0L32,0A32,32 0,0 1,64 32L64,32A32,32 0,0 1,32 64L32,64A32,32 0,0 1,0 32L0,32A32,32 0,0 1,32 0z" fill="#2C5CA4"/>
  <path d="M31.5,13C24.0524,13 18,19.3047 18,27.0625C18,29.6875 18.6977,32.2423 20.0251,34.4454L30.5849,52.4465C30.765,52.7512 31.035,52.9388 31.3501,52.9856C31.7774,53.0559 32.2502,52.8685 32.4976,52.4231L43.0876,34.2578C44.3474,32.1016 45,29.5938 45,27.0625C45,19.3047 38.9477,13 31.5,13ZM31.5,34.0938C27.7202,34.0938 24.75,30.9063 24.75,27.0625C24.75,23.1952 27.7874,20.0313 31.5,20.0313C35.2126,20.0313 38.25,23.1952 38.25,27.0625C38.25,30.8828 35.3249,34.0938 31.5,34.0938Z" fill="#ffffff"/>
</svg>