<?xml version="1.0" encoding="UTF-8" standalone="no"?><svg xmlns:android="http://schemas.android.com/apk/res/android" height="80" width="80" xmlns="http://www.w3.org/2000/svg">
    <path d="M40,40m-40,0a40,40 0,1 1,80 0a40,40 0,1 1,-80 0" fill="#07796B"/>
    <path d="M64.5261,48.3326L60.9893,44.7962C61.5938,45.0933 62.3441,44.9915 62.8465,44.4896C63.4783,43.8574 63.4783,42.8327 62.8465,42.2014L59.1142,38.4696C59.7476,38.9375 60.6438,38.8864 61.2175,38.313C61.8491,37.6812 61.8491,36.6568 61.2175,36.0252L57.5384,32.3461C58.1656,32.7579 59.0165,32.6882 59.5681,32.1364C60.1995,31.5049 60.1995,30.4808 59.5681,29.8491L56.1935,26.4743C56.7852,26.7313 57.4985,26.6195 57.9819,26.1354C58.6136,25.5037 58.6136,24.4793 57.9819,23.8482L55.5715,21.4379C55.5695,21.4352 55.5667,21.4333 55.564,21.431C55.5609,21.4274 55.5584,21.4244 55.5554,21.4212C54.9234,20.79 53.9001,20.79 53.2675,21.4212L50.8411,23.8481C50.2097,24.4788 50.2097,25.5035 50.8411,26.1356C51.3249,26.6193 52.0386,26.7313 52.6298,26.4742L49.2552,29.8489C48.6238,30.4807 48.6238,31.5047 49.2552,32.1363C49.8072,32.688 50.6577,32.7578 51.2853,32.346L47.6062,36.0251C47.1748,36.4561 47.0384,37.0696 47.1956,37.6167L44.6655,35.0871C45.2993,35.5545 46.1951,35.504 46.7689,34.9305C47.4004,34.2984 47.4004,33.2738 46.7689,32.6426L43.0893,28.9635C43.7167,29.3749 44.5678,29.3056 45.1194,28.754C45.7508,28.1222 45.7508,27.0978 45.1194,26.4666L41.7448,23.0917C42.3363,23.3483 43.0498,23.2368 43.5331,22.753C44.1646,22.1212 44.1646,21.0973 43.5331,20.4649L41.1228,18.0554C41.1208,18.0525 41.1181,18.0507 41.1157,18.0483C41.1127,18.045 41.1102,18.0414 41.1068,18.0389C40.475,17.407 39.4515,17.407 38.8193,18.0389L36.3929,20.4649C35.7615,21.0972 35.7615,22.121 36.3929,22.7528C36.8763,23.2367 37.5897,23.3483 38.1809,23.0917L34.807,26.4664C34.1753,27.0977 34.1753,28.122 34.807,28.7538C35.3581,29.3054 36.2088,29.3749 36.8369,28.9633L33.1575,32.6424C32.5254,33.2737 32.5254,34.2982 33.1575,34.9303C33.7309,35.5036 34.6273,35.5543 35.2603,35.0869L31.9564,38.3908L28.7516,35.1858C29.3788,35.5976 30.2301,35.5279 30.7813,34.9761C31.4134,34.3443 31.4134,33.3203 30.7813,32.6885L27.4067,29.3143C27.9988,29.5708 28.7117,29.4592 29.1951,28.9751C29.8272,28.3433 29.8272,27.3196 29.1951,26.6875L26.7859,24.278C26.7829,24.2755 26.7804,24.2733 26.778,24.271C26.7746,24.2683 26.7721,24.2647 26.7691,24.2617C26.1373,23.6298 25.1135,23.6298 24.4812,24.2617L22.0548,26.6884C21.4231,27.3202 21.4231,28.3438 22.0548,28.9756C22.5391,29.4597 23.252,29.5715 23.8432,29.3148L20.4686,32.6891C19.8372,33.3208 19.8372,34.3448 20.4686,34.9766C21.0205,35.5284 21.8711,35.5981 22.4992,35.1863L18.8199,38.8656C18.188,39.4968 18.188,40.5208 18.8199,41.1529C19.3934,41.7264 20.2892,41.7775 20.9222,41.3096L17.1907,45.0419C16.5584,45.6733 16.5584,46.6972 17.1907,47.3294C17.6928,47.832 18.444,47.9331 19.0481,47.6362L15.6941,50.99C15.2749,51.2821 15,51.8054 15,52.3548C15,53.2483 15.7239,54.0109 16.6179,54.0109H16.6539C16.6549,54.0109 16.6553,54.0109 16.656,54.0109H23.9437V54.8161C23.9437,55.7103 24.6499,56.4344 25.5431,56.4344C26.4368,56.4344 27.1438,55.7101 27.1438,54.8161V54.0109H34.5015C34.517,54.0109 34.5313,53.971 34.5471,53.9706C34.9778,53.9831 35.4112,53.8079 35.7396,53.4797C36.3719,52.8477 36.3719,51.8483 35.7396,51.216L32.2786,47.7793H38.2601V54.8163C38.2601,55.7105 38.9668,56.4345 39.86,56.4345C40.7536,56.4345 41.4602,55.7103 41.4602,54.8163V47.7793H44.9186L44.4809,48.1832C44.062,48.4756 43.7868,48.9706 43.7868,49.5203C43.7868,50.4138 44.5107,51.1477 45.4045,51.1477H45.4409C45.4416,51.1477 45.4419,51.1477 45.4426,51.1477H52.7447V54.8161C52.7447,55.7103 53.4516,56.4344 54.3444,56.4344C55.2379,56.4344 55.9448,55.7101 55.9448,54.8161V51.1477H63.2881C63.304,51.1477 63.3179,51.1189 63.3338,51.1185C63.7641,51.1318 64.1981,50.9621 64.5266,50.6341C65.158,50.0022 65.158,48.9644 64.5261,48.3326Z" fill="#ffffff"/>
</svg>