<?xml version="1.0" encoding="UTF-8" standalone="no"?><svg xmlns:android="http://schemas.android.com/apk/res/android" height="80" width="80" xmlns="http://www.w3.org/2000/svg">
    <path d="M40,40m-40,0a40,40 0,1 1,80 0a40,40 0,1 1,-80 0" fill="#3C409F"/>
    <path d="M61.9235,27.5162C62.9131,27.5162 63.6559,26.624 63.6559,25.6344V23.3047C63.6559,22.3151 62.9131,21.6022 61.9235,21.6022H50.0358V28.7663L40.0003,35.7285L29.9642,28.7663V21.6022H18.1959C17.2063,21.6022 16.3441,22.3151 16.3441,23.3047V25.6344C16.3441,26.624 17.2063,27.5162 18.1959,27.5162H19.3907V57.086H18.1959C17.2061,57.086 16.3441,57.7988 16.3441,58.7886V61.1183C16.3441,62.1079 17.2063,63 18.1959,63H61.9235C62.9131,63 63.6559,62.1079 63.6559,61.1183V58.7886C63.6559,57.7988 62.9131,57.086 61.9235,57.086H60.6093V27.5162H61.9235ZM32.6523,57.086V45.2581H31.0394V42.3907H48.7814V45.2581H47.3477V57.086H32.6523Z" fill="#ffffff"/>
    <path d="M32.4731,27.3552L39.9107,32.4624L47.3477,27.3552V14.5582C47.3477,13.5679 46.7215,13 45.7312,13H34.4588C33.4683,13 32.4731,13.5679 32.4731,14.5582V27.3552V27.3552ZM35.3937,20.3733L38.5292,19.8772L39.9702,17.048L41.4104,19.8772L44.5464,20.3733L42.3007,22.6172L42.7982,25.753L39.9702,24.3106L37.1414,25.753L37.6394,22.6172L35.3937,20.3733Z" fill="#ffffff"/>
</svg>