<?xml version="1.0" encoding="UTF-8" standalone="no"?><svg xmlns:android="http://schemas.android.com/apk/res/android" height="80" width="80" xmlns="http://www.w3.org/2000/svg">
    <path d="M40,40m-40,0a40,40 0,1 1,80 0a40,40 0,1 1,-80 0" fill="#5A5DB4"/>
    <path d="M27.9937,46.1688C27.8344,46.2219 27.6656,46.25 27.5,46.25C27.3344,46.25 27.1656,46.2219 27.0063,46.1688L15,42.1688V50.9375C15,51.8 15.7,52.5 16.5625,52.5H38.4375C39.3,52.5 40,51.8 40,50.9375V42.1688L27.9937,46.1688Z" fill="#ffffff"/>
    <path d="M38.4375,36.875H16.5625C15.7,36.875 15,37.575 15,38.4375V38.875L27.5,43.0406L40,38.875V38.4375C40,37.575 39.3,36.875 38.4375,36.875Z" fill="#ffffff"/>
    <path d="M52.5,27.5H33.75C32.6656,27.5 31.6312,27.6813 30.625,27.9438V24.375H41.5625C42.425,24.375 43.125,23.675 43.125,22.8125V16.5625C43.125,15.7 42.425,15 41.5625,15H29.0625C28.2,15 27.5,15.7 27.5,16.5625V29.2375C25.6281,30.3313 24.0562,31.8875 22.9594,33.75H26.8125C28.875,31.4625 32.0125,30.1594 35.4531,30.7781C39.9906,31.5937 43.125,35.8281 43.125,40.4344V55.625H21.25V57.1875C21.25,58.05 21.95,58.75 22.8125,58.75H49.375V63.4375C49.375,64.3 50.075,65 50.9375,65H54.0625C54.925,65 55.625,64.3 55.625,63.4375V58.75H63.4375C64.3,58.75 65,58.05 65,57.1875V40C65,33.0969 59.4031,27.5 52.5,27.5Z" fill="#ffffff"/>
</svg>