<?xml version="1.0" encoding="UTF-8" standalone="no"?><svg xmlns:android="http://schemas.android.com/apk/res/android" height="80" width="80" xmlns="http://www.w3.org/2000/svg">
    <path d="M40,40m-40,0a40,40 0,1 1,80 0a40,40 0,1 1,-80 0" fill="#CF12FE"/>
    <path d="M27.5,25C30.2625,25 32.5001,22.7625 32.5001,19.9999C32.4999,17.2375 30.2625,15 27.5,15C24.7376,15 22.5,17.2375 22.5,20C22.5,22.7625 24.7375,25 27.5,25Z" fill="#ffffff"/>
    <path d="M50,25C52.7625,25 55,22.7625 55,19.9999C54.9999,17.2375 52.7625,15 50,15C47.2374,15 45,17.2375 45,20C45,22.7625 47.2374,25 50,25Z" fill="#ffffff"/>
    <path d="M31.25,27.5H23.75C21,27.5 18.75,29.75 18.75,32.4999V46.2499H22.5V64.9999H32.5V46.2499H36.2499V32.4999C36.2499,29.75 34,27.5 31.25,27.5Z" fill="#ffffff"/>
    <path d="M54.8874,30.9249C54.2124,28.875 52.2999,27.4999 50.1499,27.4999H49.8624C47.7124,27.4999 45.7999,28.8748 45.1249,30.9249L38.7499,49.9999H46.2499V64.9998H53.7499V49.9999H61.2499L54.8874,30.9249Z" fill="#ffffff"/>
</svg>