<?xml version="1.0" encoding="UTF-8" standalone="no"?><svg xmlns:android="http://schemas.android.com/apk/res/android" height="64" width="64" xmlns="http://www.w3.org/2000/svg">
  <path d="M32,0L32,0A32,32 0,0 1,64 32L64,32A32,32 0,0 1,32 64L32,64A32,32 0,0 1,0 32L0,32A32,32 0,0 1,32 0z" fill="#1460ac"/>
  <path d="M25.12,36.66l-0.47,0a6,6 0,0 1,-1.28 -0.16l-9.62,9.62a1.2,1.2 0,0 0,0 1.7l2.49,2.49a1.21,1.21 0,0 0,1.71 0L29.51,38.78l-2.14,-2.31Z" fill="#fff"/>
  <path d="M50.43,21.25a1.15,1.15 0,0 0,-1.63 0l-6.23,6.23a1.51,1.51 0,0 1,-2.14 -2.13l6.2,-6.2a1.2,1.2 0,1 0,-1.7 -1.7l-6.19,6.2a1.51,1.51 0,1 1,-2.14 -2.13l6.23,-6.23a1.16,1.16 0,1 0,-1.63 -1.64l-7,7a6.49,6.49 0,0 0,-1.68 6.21l4.7,4.7a6.5,6.5 0,0 0,6.21 -1.67l7,-7A1.16,1.16 0,0 0,50.43 21.25Z" fill="#fff"/>
  <path d="M16.38,14.29a1.29,1.29 0,0 0,-0.9 -0.38l-0.21,0a1.28,1.28 0,0 0,-0.94 0.7,11.09 11.09,0 0,0 2.14,12.66l6,6a3.12,3.12 0,0 0,2.21 0.92h0.26l3.46,-0.3 15.1,16.29a1.31,1.31 0,0 0,0.91 0.41h0a1.27,1.27 0,0 0,0.9 -0.38l2.59,-2.58a1.28,1.28 0,0 0,0.37 -0.9,1.26 1.26,0 0,0 -0.37,-0.9Z" fill="#fff"/>
</svg>