<?xml version="1.0" encoding="UTF-8" standalone="no"?><svg xmlns:android="http://schemas.android.com/apk/res/android" height="64" width="64" xmlns="http://www.w3.org/2000/svg">
  <path d="M32,0L32,0A32,32 0,0 1,64 32L64,32A32,32 0,0 1,32 64L32,64A32,32 0,0 1,0 32L0,32A32,32 0,0 1,32 0z" fill="#0e4775"/>
  <path d="M32,44.57a2.59,2.59 0,0 0,-2.59 2.59v6.3c0.86,0 1.72,0 2.59,0s1.74,0 2.59,0v-6.3A2.59,2.59 0,0 0,32 44.57Z" fill="#fff"/>
  <path d="M30.71,34.67a63.25,63.25 0,0 1,-10.44 -1V52.5a58.63,58.63 0,0 0,6.56 0.83V47.16a5.17,5.17 0,0 1,3.88 -5Z" fill="#fff"/>
  <path d="M43.74,33.67a63.38,63.38 0,0 1,-10.45 1v7.48a5.17,5.17 0,0 1,3.89 5v6.16a57.66,57.66 0,0 0,6.63 -0.83,1.25 1.25,0 0,1 -0.07,-0.43Z" fill="#fff"/>
  <path d="M54.05,27.89a4.41,4.41 0,0 1,-2.18 3,17.61 17.61,0 0,1 -4.83,2l-0.72,0.2V51.92l0.58,-0.15c4.6,-1.28 7,-3.05 7.18,-5.25v-0.09S54.07,28 54.05,27.89Z" fill="#fff"/>
  <path d="M12.13,30.85a4.44,4.44 0,0 1,-2.19 -3c0,0.08 0,6.36 0,9.33V46.3a4.17,4.17 0,0 0,2.2 3.38,17.29 17.29,0 0,0 4.83,2l0.73,0.19V33.09l-0.72,-0.2A17.61,17.61 0,0 1,12.13 30.85Z" fill="#fff"/>
  <path d="M13.15,28.39C17,26.38 24,25.16 32,25.16s15,1.22 18.85,3.23c0.45,-0.37 0.65,-0.69 0.65,-0.92 0,-0.52 -1.08,-1.57 -4,-2.55 0,-0.12 0.07,-5.26 0.07,-5.26H50a1,1 0,0 0,0.81 -0.46,1.24 1.24,0 0,0 0.14,-1l-0.56,-1.88L51,14.43a1.23,1.23 0,0 0,-0.14 -1A1,1 0,0 0,50 13H46a1.07,1.07 0,0 0,-1 1.12V24.2a57.89,57.89 0,0 0,-13 -1.34V17.19h2.42a1,1 0,0 0,0.81 -0.46,1.26 1.26,0 0,0 0.13,-1l-0.56,-1.88L35.36,12a1.25,1.25 0,0 0,-0.13 -1,1 1,0 0,0 -0.81,-0.47h-4a1.07,1.07 0,0 0,-1 1.12l0,11.29a51.14,51.14 0,0 0,-11.74 1.64c-0.47,0.13 -0.89,0.27 -1.28,0.4V21.57h2.39a1,1 0,0 0,0.81 -0.47,1.21 1.21,0 0,0 0.14,-1l-0.56,-1.88 0.56,-1.88a1.23,1.23 0,0 0,-0.14 -1,1 1,0 0,0 -0.81,-0.46h-4a1.06,1.06 0,0 0,-1 1.11V26.11c-0.91,0.56 -1.3,1.05 -1.3,1.36S12.7,28 13.15,28.39Z" fill="#fff"/>
  <path d="M16.13,29.92c0.46,0.16 1,0.32 1.54,0.48A54.58,54.58 0,0 0,32 32.09,54.58 54.58,0 0,0 46.33,30.4c0.57,-0.16 1.08,-0.32 1.55,-0.49 -3.72,-1.34 -9.56,-2.16 -15.88,-2.16S19.85,28.58 16.13,29.92Z" fill="#fff"/>
</svg>