<?xml version="1.0" encoding="UTF-8" standalone="no"?><svg xmlns:android="http://schemas.android.com/apk/res/android" height="80" width="80" xmlns="http://www.w3.org/2000/svg">
    <path d="M40,40m-40,0a40,40 0,1 1,80 0a40,40 0,1 1,-80 0" fill="#13E8CE"/>
    <path d="M32.2109,43.8364L26.3516,51.6484H38.0703L32.2109,43.8364Z" fill="#ffffff"/>
    <path d="M24.8867,28.2109V48.7196L31.0394,40.5162C31.5915,39.778 32.8304,39.778 33.3825,40.5162L35.3661,43.161L39.8556,37.5493C40.4135,36.8541 41.5865,36.8541 42.1444,37.5493L49.4157,46.6388L51.5,43.5117C52.0436,42.6963 53.394,42.6963 53.9376,43.5117L57.1133,48.2753V28.2109H24.8867ZM49.7891,39.9297C47.3658,39.9297 45.3945,37.9584 45.3945,35.5352C45.3945,33.1119 47.3658,31.1406 49.7891,31.1406C52.2123,31.1406 54.1836,33.1119 54.1836,35.5352C54.1836,37.9584 52.2123,39.9297 49.7891,39.9297Z" fill="#ffffff"/>
    <path d="M49.7891,34.0703C48.9809,34.0703 48.3242,34.727 48.3242,35.5352C48.3242,36.3434 48.9809,37 49.7891,37C50.5973,37 51.2539,36.3434 51.2539,35.5352C51.2539,34.727 50.5973,34.0703 49.7891,34.0703Z" fill="#ffffff"/>
    <path d="M41,40.8094L37.1823,45.5827L41.7317,51.6484H49.6703L41,40.8094Z" fill="#ffffff"/>
    <path d="M52.7188,46.9649L51.3354,49.0391L53.4226,51.6484H55.8416L52.7188,46.9649Z" fill="#ffffff"/>
    <path d="M61.6055,19.4219H20.3945C17.9713,19.4219 16,21.3932 16,23.8164V56.043C16,58.4662 17.9713,60.4375 20.3945,60.4375H61.6055C64.0287,60.4375 66,58.4662 66,56.043V23.8164C66,21.3932 64.0287,19.4219 61.6055,19.4219ZM60.043,53.1133C60.043,53.9006 59.3097,54.5781 58.5781,54.5781C47.659,54.5781 34.3421,54.5781 23.4219,54.5781C22.7355,54.5781 21.957,53.9589 21.957,53.1133V26.7461C21.957,25.9364 22.6122,25.2812 23.4219,25.2812H58.5781C59.3878,25.2812 60.043,25.9364 60.043,26.7461V53.1133Z" fill="#ffffff"/>
    <path d="M41,13.5625C39.0928,13.5625 37.482,14.7908 36.8753,16.4922H45.1247C44.518,14.7908 42.9072,13.5625 41,13.5625Z" fill="#ffffff"/>
</svg>