<?xml version="1.0" encoding="UTF-8" standalone="no"?><svg xmlns:android="http://schemas.android.com/apk/res/android" height="64" width="64" xmlns="http://www.w3.org/2000/svg">
  <path d="M32,0L32,0A32,32 0,0 1,64 32L64,32A32,32 0,0 1,32 64L32,64A32,32 0,0 1,0 32L0,32A32,32 0,0 1,32 0z" fill="#1d5b25"/>
  <path d="M45.77,30.56a4.71,4.71 0,0 0,-4.71 4.71,1.13 1.13,0 1,0 2.26,0 2.47,2.47 0,0 1,2.46 -2.46,1.13 1.13,0 1,0 0,-2.25Z" fill="#fff"/>
  <path d="M53.46,27.31a10.52,10.52 0,0 0,-0.87 -0.76h0L48.41,23a11,11 0,0 0,-5.6 -2l0.22,0.23L40.5,18.67h0A4,4 0,0 0,34 20.38a3.69,3.69 0,0 0,-1.75 -0.56L32,19.82a3.78,3.78 0,0 0,-2 0.57,4 4,0 0,0 -6.45,-1.7h0L21,21.23 21.2,21a11.08,11.08 0,0 0,-5.6 2l-4.18,3.55h0a7.76,7.76 0,0 0,-0.87 0.76,11.08 11.08,0 1,0 18.69,9.33 5.58,5.58 0,0 0,5.52 0,11.08 11.08,0 0,0 22.07,-1.38A11,11 0,0 0,53.46 27.31ZM18.25,42.84a7.56,7.56 0,1 1,7.56 -7.56A7.55,7.55 0,0 1,18.25 42.84ZM32,34.25a2.46,2.46 0,1 1,2.45 -2.46A2.46,2.46 0,0 1,32 34.25ZM45.76,42.84a7.56,7.56 0,1 1,7.56 -7.56A7.56,7.56 0,0 1,45.77 42.84Z" fill="#fff"/>
  <path d="M18.25,30.56a4.72,4.72 0,0 0,-4.72 4.71,1.13 1.13,0 1,0 2.26,0 2.47,2.47 0,0 1,2.47 -2.46,1.13 1.13,0 1,0 0,-2.25Z" fill="#fff"/>
</svg>