<?xml version="1.0" encoding="UTF-8" standalone="no"?><svg xmlns:android="http://schemas.android.com/apk/res/android" height="80" width="80" xmlns="http://www.w3.org/2000/svg">
    <path d="M40,40m-40,0a40,40 0,1 1,80 0a40,40 0,1 1,-80 0" fill="#FF0000"/>
    <path d="M64.1608,34.7609L56.583,27.1832V18.4296C56.583,16.8468 55.3004,15.5641 53.7153,15.5641C52.1339,15.5641 50.8513,16.8468 50.8513,18.4296V21.4515L45.2091,15.8091C42.4195,13.021 37.5693,13.026 34.7861,15.8141L15.8389,34.7609C14.7204,35.8816 14.7204,37.695 15.8389,38.814C16.9579,39.9344 18.7749,39.9344 19.8934,38.814L38.8388,19.8667C39.456,19.2528 40.5438,19.2528 41.1578,19.8649L60.1064,38.814C60.6682,39.3743 61.4008,39.653 62.1331,39.653C62.867,39.653 63.6007,39.374 64.1609,38.814C65.2798,37.6951 65.2798,35.8817 64.1608,34.7609Z" fill="#ffffff"/>
    <path d="M40.9954,25.3061C40.4449,24.756 39.5536,24.756 39.0048,25.3061L22.3388,41.9672C22.0757,42.2302 21.9265,42.5893 21.9265,42.964V55.116C21.9265,57.9675 24.2386,60.2795 27.09,60.2795H35.3414V47.5009H44.657V60.2795H52.9084C55.7598,60.2795 58.0719,57.9675 58.0719,55.1161V42.964C58.0719,42.5893 57.924,42.2302 57.6596,41.9672L40.9954,25.3061Z" fill="#ffffff"/>
</svg>