<?xml version="1.0" encoding="UTF-8" standalone="no"?><svg xmlns:android="http://schemas.android.com/apk/res/android" height="80" width="80" xmlns="http://www.w3.org/2000/svg">
    <path d="M40,40m-40,0a40,40 0,1 1,80 0a40,40 0,1 1,-80 0" fill="#46A836"/>
    <path d="M64.1608,37.7609L56.583,30.1832V21.4296C56.583,19.8468 55.3004,18.5641 53.7153,18.5641C52.1339,18.5641 50.8513,19.8468 50.8513,21.4296V24.4515L45.2091,18.8091C42.4195,16.021 37.5693,16.026 34.7861,18.8141L15.8389,37.7609C14.7204,38.8816 14.7204,40.695 15.8389,41.814C16.9579,42.9344 18.7749,42.9344 19.8934,41.814L38.8388,22.8667C39.456,22.2528 40.5438,22.2528 41.1578,22.8649L60.1064,41.814C60.6682,42.3743 61.4008,42.653 62.1331,42.653C62.867,42.653 63.6007,42.374 64.1609,41.814C65.2798,40.6951 65.2798,38.8817 64.1608,37.7609Z" fill="#ffffff"/>
    <path d="M40.9954,28.3061C40.4449,27.756 39.5536,27.756 39.0048,28.3061L22.3388,44.9672C22.0757,45.2302 21.9265,45.5893 21.9265,45.964V58.116C21.9265,60.9675 24.2386,63.2795 27.09,63.2795H35.3414V50.5009H44.657V63.2795H52.9084C55.7598,63.2795 58.0719,60.9675 58.0719,58.1161V45.964C58.0719,45.5893 57.924,45.2302 57.6596,44.9672L40.9954,28.3061Z" fill="#ffffff"/>
</svg>