<?xml version="1.0" encoding="UTF-8" standalone="no"?><svg xmlns:android="http://schemas.android.com/apk/res/android" height="64" width="64" xmlns="http://www.w3.org/2000/svg">
  <path d="M32,0L32,0A32,32 0,0 1,64 32L64,32A32,32 0,0 1,32 64L32,64A32,32 0,0 1,0 32L0,32A32,32 0,0 1,32 0z" fill="#bc0000"/>
  <path d="M49.83,42.84l-5.77,-5.77a3,3 0,0 0,-4.23 0.08l-2.91,2.91 -0.57,-0.32a28.76,28.76 0,0 1,-7 -5.06,29 29,0 0,1 -5.06,-7L24,27.12l1.94,-1.94 1,-1A3,3 0,0 0,27 20L21.2,14.21a3,3 0,0 0,-4.23 0.08l-1.63,1.64 0.05,0a9.43,9.43 0,0 0,-1.34 2.36,9.59 9.59,0 0,0 -0.6,2.4c-0.76,6.31 2.12,12.08 10,19.9 10.82,10.82 19.54,10 19.92,10a10,10 0,0 0,2.4 -0.61,9.17 9.17,0 0,0 2.35,-1.33l0,0 1.64,-1.61A3,3 0,0 0,49.83 42.84Z" fill="#fff"/>
</svg>