<?xml version="1.0" encoding="UTF-8" standalone="no"?><svg xmlns:android="http://schemas.android.com/apk/res/android" height="64" width="64" xmlns="http://www.w3.org/2000/svg">
  <path d="M32,0L32,0A32,32 0,0 1,64 32L64,32A32,32 0,0 1,32 64L32,64A32,32 0,0 1,0 32L0,32A32,32 0,0 1,32 0z" fill="#f0f"/>
  <path d="M23.63,43.05a3.69,3.69 0,1 0,3.69 3.68A3.7,3.7 0,0 0,23.63 43.05ZM12.63,13.58v3.69h3.69l6.63,14 -2.58,4.42A6.4,6.4 0,0 0,20 37.52a3.7,3.7 0,0 0,3.68 3.69h22.1L45.78,37.52L24.37,37.52a0.4,0.4 0,0 1,-0.37 -0.36L24,37l1.66,-3.13L39.29,33.87A3.37,3.37 0,0 0,42.42 32l6.63,-12a1,1 0,0 0,0.37 -0.92,1.74 1.74,0 0,0 -1.85,-1.84L20.32,17.24l-1.66,-3.69ZM42.05,43.05a3.69,3.69 0,1 0,3.68 3.68A3.69,3.69 0,0 0,42.05 43.05Z" fill="#fff"/>
</svg>