<?xml version="1.0" encoding="UTF-8" standalone="no"?><svg xmlns:android="http://schemas.android.com/apk/res/android" height="80" width="80" xmlns="http://www.w3.org/2000/svg">
    <path d="M40,40m-40,0a40,40 0,1 1,80 0a40,40 0,1 1,-80 0" fill="#FF2D6C"/>
    <path d="M43.2091,48.0697C42.3192,48.6155 41.1795,48.9161 40,48.9161C38.8205,48.9161 37.6808,48.6156 36.7909,48.0697L22.2619,39.159C22.2619,39.159 20.9506,38.3552 20.9506,40.1761C20.9506,42.244 20.9506,48.4474 20.9506,48.4474C20.9506,48.5301 20.9506,48.9453 20.9506,49.074C20.9506,53.7614 29.4791,58.8145 39.9996,58.8145C50.5201,58.8145 59.0487,53.7615 59.0487,49.074C59.0487,48.9453 59.0487,48.5301 59.0487,48.4474C59.0487,48.4474 59.0487,41.8677 59.0487,39.6745C59.0487,38.2128 58.1164,38.927 58.1164,38.927L43.2091,48.0697Z" fill="#ffffff"/>
    <path d="M64.1627,32.0711C65.2791,31.3865 65.2791,30.2661 64.1627,29.5814L42.0297,18.5135C40.9133,17.8288 39.0865,17.8288 37.9701,18.5135L15.8373,29.5814C14.7209,30.266 14.7209,31.3864 15.8373,32.0711L37.9701,45.6455C39.0865,46.3301 40.9133,46.3301 42.0297,45.6455" fill="#ffffff"/>
    <path d="M63.2473,52.1914C63.2473,48.4435 63.2473,37.1997 63.2473,37.1997C63.2473,37.1997 63.2577,36.4896 62.8364,36.7241C62.4984,36.9122 61.6699,37.374 61.378,37.628C61.041,37.9208 61.117,38.5783 61.117,38.5783C61.117,38.5783 61.117,48.7882 61.117,52.1914C61.117,52.3847 60.9509,52.4769 60.8717,52.5235C60.1066,52.9733 59.5922,53.8036 59.5922,54.7554C59.5922,56.1858 60.7516,57.3455 62.1822,57.3455C63.6126,57.3455 64.7721,56.1858 64.7721,54.7554C64.7721,53.8 64.2539,52.9671 63.4839,52.5184C63.4074,52.4738 63.2473,52.3846 63.2473,52.1914Z" fill="#ffffff"/>
</svg>