<?xml version="1.0" encoding="UTF-8" standalone="no"?><svg xmlns:android="http://schemas.android.com/apk/res/android" height="80" width="80" xmlns="http://www.w3.org/2000/svg">
    <path d="M40,40m-40,0a40,40 0,1 1,80 0a40,40 0,1 1,-80 0" fill="#000A63"/>
    <path d="M27.2254,53.0654L30.6064,55.5133C31.641,56.2621 33.1424,56.2621 34.177,55.5133L37.5579,53.0654C39.619,51.5731 42.4984,51.5731 44.5594,53.0654L47.9408,55.5133C48.9749,56.2621 50.4768,56.2621 51.5113,55.5133L54.8923,53.0654C56.9538,51.5731 59.8327,51.5731 61.8942,53.0654L66.0202,56.0523V49.8809L60.1783,45.6519C59.1442,44.9031 57.6427,44.9031 56.6082,45.6519L53.2268,48.0994C51.1657,49.5917 48.2864,49.5917 46.2253,48.0994L42.844,45.6519C41.8098,44.9027 40.308,44.9031 39.2738,45.6519L35.8924,48.0994C33.8314,49.5917 30.952,49.5917 28.8909,48.0994L25.5096,45.6519C24.4754,44.9031 22.9736,44.9031 21.9394,45.6519L16.0976,49.8809V56.0523L20.2236,53.0654C22.285,51.5731 25.164,51.5731 27.2254,53.0654V53.0654Z" fill="#ffffff"/>
    <path d="M27.2254,43.2818L30.6064,45.7297C31.641,46.4785 33.1424,46.4785 34.177,45.7297L37.5579,43.2818C39.6194,41.7899 42.4987,41.7899 44.5594,43.2818L47.9408,45.7297C48.9749,46.4785 50.4768,46.4785 51.5113,45.7297L54.8923,43.2818C56.9538,41.7899 59.8327,41.7899 61.8942,43.2818L66.0202,46.2691V36.9426H52.3826C47.9736,36.7606 44.384,33.0287 44.3752,28.6105C44.371,26.3747 45.2381,24.2724 46.817,22.6905C48.3718,21.1322 50.4329,20.2636 52.6298,20.2376L53.4736,20.3604L54.6051,18.5218L53.7311,17.705C47.9469,12.2992 39.225,11.46 32.5218,15.6638C30.4115,16.9875 28.5572,18.846 27.1587,21.0402L16.0976,38.4398V46.2691L20.2236,43.2818C22.285,41.7899 25.164,41.7899 27.2254,43.2818V43.2818Z" fill="#ffffff"/>
    <path d="M56.6078,55.4351L53.2268,57.883C51.1657,59.3749 48.2864,59.3749 46.2253,57.883L42.844,55.4351C41.8094,54.6863 40.308,54.6863 39.2734,55.4351L35.8924,57.883C33.8314,59.3749 30.952,59.3749 28.8909,57.883L25.5096,55.4351C24.4754,54.6863 22.9736,54.6863 21.9394,55.4351L16.0976,59.6641V63H66.0202V59.6641L60.1783,55.4351C59.1442,54.6863 57.6427,54.6863 56.6078,55.4351V55.4351Z" fill="#ffffff"/>
</svg>