<?xml version="1.0" encoding="UTF-8" standalone="no"?><svg xmlns:android="http://schemas.android.com/apk/res/android" height="64" width="64" xmlns="http://www.w3.org/2000/svg">
  <path d="M32,0L32,0A32,32 0,0 1,64 32L64,32A32,32 0,0 1,32 64L32,64A32,32 0,0 1,0 32L0,32A32,32 0,0 1,32 0z" fill="#009245"/>
  <path d="M22.56,18.17H41.44a5.71,5.71 0,0 0,5.71 -5.71H44.52a3.08,3.08 0,0 1,-3.08 3.07h-0.15L40.34,12H23.66l-0.95,3.51h-0.15a3.08,3.08 0,0 1,-3.08 -3.07H16.85A5.71,5.71 0,0 0,22.56 18.17Z" fill="#fff"/>
  <path d="M18.39,32.22h6.59v6.59h-6.59z" fill="#fff"/>
  <path d="M27.61,32.22h8.78v6.59h-8.78z" fill="#fff"/>
  <path d="M39.03,32.22h6.59v6.59h-6.59z" fill="#fff"/>
  <path d="M12.02,48.03h39.96v3.95h-39.96z" fill="#fff"/>
  <path d="M13.78,41.44h36.45v3.95h-36.45z" fill="#fff"/>
  <path d="M17.29,29.58H46.71a5.71,5.71 0,0 0,5.71 -5.7H49.79A3.08,3.08 0,0 1,46.71 27h-0.15l-1,-3.51H40.34V20.8H23.66v2.64H18.39L17.44,27h-0.15a3.08,3.08 0,0 1,-3.08 -3.07H11.58A5.71,5.71 0,0 0,17.29 29.58Z" fill="#fff"/>
</svg>