<?xml version="1.0" encoding="UTF-8" standalone="no"?><svg xmlns:android="http://schemas.android.com/apk/res/android" height="64" width="64" xmlns="http://www.w3.org/2000/svg">
  <path d="M32,0L32,0A32,32 0,0 1,64 32L64,32A32,32 0,0 1,32 64L32,64A32,32 0,0 1,0 32L0,32A32,32 0,0 1,32 0z" fill="#f7931e"/>
  <path d="M49.82,20.93c-0.35,-3.46 -0.92,-6.16 -1.81,-7.22 -3.67,-4.35 -29.43,-4.67 -32.36,0 -0.71,1.15 -1.21,3.83 -1.55,7.22a2.19,2.19 0,0 0,-1.93 2.17v4.23a2.17,2.17 0,0 0,1.43 2.05c-0.2,6.68 0,13.64 0.26,17.1 0,2.68 1.79,2.23 1.79,2.23h1.69L17.34,51.6A2.4,2.4 0,0 0,20 53.67,2.4 2.4,0 0,0 22.6,51.6L22.6,48.71L42.19,48.71L42.19,51.6a2.41,2.41 0,0 0,2.64 2.07,2.4 2.4,0 0,0 2.63,-2.07L47.46,48.71L48,48.71s2.12,0.29 2.25,-1c0,-3.45 0.22,-11.1 0,-18.33a2.17,2.17 0,0 0,1.53 -2.08L51.78,23.1A2.17,2.17 0,0 0,49.82 20.93ZM21.94,14.34L41.72,14.34v3L21.94,17.34ZM22.23,45.34A2.82,2.82 0,1 1,25 42.49,2.81 2.81,0 0,1 22.23,45.31ZM41.62,45.34a2.82,2.82 0,1 1,2.81 -2.82A2.82,2.82 0,0 1,41.62 45.31ZM45.19,33L18.48,33L18.48,19L45.19,19Z" fill="#fff"/>
</svg>