<?xml version="1.0" encoding="UTF-8" standalone="no"?><svg xmlns:android="http://schemas.android.com/apk/res/android" height="80" width="80" xmlns="http://www.w3.org/2000/svg">
    <path d="M40,40m-40,0a40,40 0,1 1,80 0a40,40 0,1 1,-80 0" fill="#C5B100"/>
    <path d="M28.8164,35.0195C28.8164,40.135 32.9782,44.2969 38.0938,44.2969C43.2093,44.2969 47.3711,40.135 47.3711,35.0195C47.3711,29.904 43.2093,25.7422 38.0938,25.7422C32.9782,25.7422 28.8164,29.904 28.8164,35.0195ZM43.4648,35.0195C43.4648,37.9813 41.0555,40.3906 38.0938,40.3906C35.132,40.3906 32.7227,37.9813 32.7227,35.0195C32.7227,32.0578 35.132,29.6484 38.0938,29.6484C41.0555,29.6484 43.4648,32.0578 43.4648,35.0195ZM39.6192,58.5223C40.0873,59.8051 40.719,61.0094 41.4888,62.1107C40.2243,63.2471 39.3999,63.9162 39.3213,63.9799L38.0938,64.9718L36.8662,63.9803C36.6766,63.8266 32.1642,60.1633 27.5877,54.909C21.2751,47.6614 18.0742,41.1559 18.0742,35.573V35.0195C18.0742,23.9809 27.0552,15 38.0938,15C49.1323,15 58.1133,23.9809 58.1133,35.0195V35.573C58.1133,36.3577 58.0477,37.1615 57.9214,37.982C56.7602,37.7058 55.5494,37.5586 54.3047,37.5586C54.215,37.5586 54.1258,37.5605 54.0365,37.562C54.1464,36.8918 54.207,36.2273 54.207,35.573V35.0195C54.207,26.1347 46.9786,18.9062 38.0938,18.9062C29.2089,18.9062 21.9805,26.1347 21.9805,35.0195V35.573C21.9805,45.0068 34.1356,56.4272 38.0938,59.8956C38.5168,59.5248 39.0341,59.0624 39.6192,58.5223ZM54.3047,41.5625C47.843,41.5625 42.5859,46.8195 42.5859,53.2812C42.5859,59.743 47.843,65 54.3047,65C60.7664,65 66.0234,59.743 66.0234,53.2812C66.0234,46.8195 60.7664,41.5625 54.3047,41.5625ZM54.3047,61.0938C49.9967,61.0938 46.4922,57.5892 46.4922,53.2812C46.4922,48.9733 49.9967,45.4688 54.3047,45.4688C58.6126,45.4688 62.1172,48.9733 62.1172,53.2812C62.1172,57.5892 58.6126,61.0938 54.3047,61.0938ZM56.2578,51.3281H58.8945V55.2344H52.3516V47.8125H56.2578V51.3281Z" fill="#ffffff"/>
</svg>