<?xml version="1.0" encoding="UTF-8" standalone="no"?><svg xmlns:android="http://schemas.android.com/apk/res/android" height="80" width="80" xmlns="http://www.w3.org/2000/svg">
    <path d="M40,40m-40,0a40,40 0,1 1,80 0a40,40 0,1 1,-80 0" fill="#1673FF"/>
    <path d="M63.5352,52.1716C60.2607,52.1716 58.4422,53.0314 56.9229,53.791C56.149,54.1787 55.4181,54.5434 54.4868,54.7866C53.6743,54.9983 52.7687,55.1013 51.7188,55.1013C49.1353,55.1013 47.9207,54.4948 46.5146,53.791C44.9968,53.0314 43.2759,52.1716 40,52.1716C36.7241,52.1716 35.0032,53.0314 33.4854,53.791C32.0793,54.4948 30.8647,55.1013 28.2812,55.1013C25.6978,55.1013 24.3855,54.4948 22.9794,53.791C21.4616,53.0313 19.7407,52.1716 16.4648,52.1716C15.6552,52.1716 15,52.8268 15,53.6365V62.5232C15,63.3329 15.6552,63.988 16.4648,63.988H63.5352C64.3448,63.988 65,63.3329 65,62.5232V53.6365C65,52.8268 64.3448,52.1716 63.5352,52.1716Z" fill="#ffffff"/>
    <path d="M58.1031,26.2798C58.2032,25.905 58.1517,25.5045 57.9572,25.1683C56.0618,21.881 51.9849,20.6279 48.5974,22.1542C48.2354,21.8424 47.8563,21.5505 47.463,21.2802L48.7948,16.3106C49.0037,15.5295 48.5402,14.7256 47.7592,14.5167C45.8709,14.0118 43.8968,14.2693 42.2017,15.2477C40.7183,16.1045 39.6053,17.4206 39.0102,19.0028C38.5338,19.0385 38.0589,19.1 37.5896,19.1873L35.0175,14.7313C34.8229,14.3952 34.5025,14.1491 34.1277,14.049C33.7544,13.9502 33.3524,14.0018 33.0162,14.1949C29.7317,16.0917 28.4715,20.1659 30.0021,23.5547C29.6903,23.9166 29.3984,24.2957 29.1281,24.6891L24.1585,23.3573C23.3846,23.1498 22.5749,23.6105 22.3646,24.3929C21.8582,26.2827 22.1172,28.2567 23.0956,29.9504C23.9524,31.4338 25.2686,32.5468 26.8507,33.1419C26.8864,33.6183 26.9479,34.0932 27.0353,34.5624L22.5792,37.1345C22.2431,37.329 21.997,37.6495 21.8969,38.0243C21.7968,38.3991 21.8482,38.7996 22.0428,39.1358C23.9396,42.4216 28.0181,43.6791 31.4026,42.1499C31.7645,42.4617 32.1436,42.7536 32.537,43.0239L31.2052,47.9935C30.9963,48.7746 31.4598,49.5785 32.2408,49.7874C34.1306,50.2923 36.1032,50.032 37.7983,49.0564C39.2817,48.1996 40.3947,46.8834 40.9898,45.3013C41.4662,45.2656 41.9411,45.204 42.4103,45.1167L44.9824,49.5728C45.3871,50.2721 46.2792,50.513 46.9837,50.1092C50.2682,48.2124 51.5284,44.1382 49.9977,40.7494C50.3096,40.3874 50.6015,40.0083 50.8718,39.615L55.8414,40.9468C56.6282,41.1628 57.425,40.6951 57.6352,39.9112C58.1417,38.0214 57.8827,36.0474 56.9043,34.3537C56.0475,32.8703 54.7313,31.7573 53.1492,31.1621C53.1135,30.6858 53.0519,30.2109 52.9646,29.7416L57.4207,27.1696C57.7569,26.975 58.003,26.6546 58.1031,26.2798ZM44.1013,33.0304L39.7067,38.8898C39.2235,39.5364 38.3058,39.6696 37.6568,39.1831C37.0088,38.6981 36.8772,37.7797 37.3636,37.1331L40,33.6169H37.0703C36.5152,33.6169 36.0089,33.3037 35.76,32.8073C35.5125,32.3109 35.5654,31.7172 35.8987,31.2738L40.2933,25.4144C40.7782,24.7678 41.698,24.6362 42.3432,25.1211C42.9912,25.6061 43.1227,26.5245 42.6364,27.171L40,30.6872H42.9297C43.4848,30.6872 43.9911,31.0005 44.24,31.4969C44.4875,31.9933 44.4346,32.587 44.1013,33.0304Z" fill="#ffffff"/>
</svg>