<?xml version="1.0" encoding="UTF-8" standalone="no"?><svg xmlns:android="http://schemas.android.com/apk/res/android" height="80" width="80" xmlns="http://www.w3.org/2000/svg">
    <path d="M40,40m-40,0a40,40 0,1 1,80 0a40,40 0,1 1,-80 0" fill="#FF800C"/>
    <path d="M37.6458,35.6188H35.7399V42.7937H37.6458V35.6188Z" fill="#ffffff"/>
    <path d="M37.6458,44.5874H35.7399V49.0717H37.6458V44.5874Z" fill="#ffffff"/>
    <path d="M17.4664,23.7354V51.9193C17.4664,53.8812 19.0583,55.4619 21.009,55.4619C21.0202,55.4619 21.0314,55.4619 21.0426,55.4619H58.9014C60.8745,55.4619 62.5336,53.8924 62.5336,51.9193V23.7354H17.4664ZM32.9372,49.9462C32.9372,50.4507 32.5336,50.8542 32.0404,50.8655H28.3857C27.8812,50.8542 27.4664,50.4507 27.444,49.9462V43.713V39.565C27.4664,39.0605 27.8812,38.6457 28.3857,38.6457H32.0404C32.5448,38.6569 32.9372,39.0717 32.9372,39.565V49.9462ZM39.4395,49.935C39.4395,50.4395 39.0359,50.843 38.5426,50.8542H34.8879C34.3834,50.843 33.9686,50.4395 33.9462,49.935V43.713V34.722C33.9462,34.2287 34.3946,33.8251 34.8879,33.8251H38.5426C39.0359,33.8251 39.4395,34.2287 39.4395,34.722V49.935ZM45.9417,49.9462C45.9417,50.4507 45.5381,50.8542 45.0449,50.8655H41.3901C40.8857,50.8542 40.4709,50.4507 40.4484,49.9462V43.713V31.9641C40.4709,31.4484 40.8744,31.0448 41.3901,31.0224H45.0449C45.5493,31.0448 45.9417,31.4596 45.9417,31.9641V49.9462ZM52.5561,49.9462C52.5336,50.4507 52.1188,50.8655 51.6144,50.8655H47.8924C47.3879,50.8542 46.9731,50.4507 46.9507,49.9462V43.713V29.1951C46.9507,28.7018 47.3991,28.2197 47.8924,28.2197H51.6144C52.1076,28.2197 52.5561,28.7018 52.5561,29.1951V49.9462Z" fill="#ffffff"/>
    <path d="M61.4686,16H18.5314C16.5583,16 15,17.6816 15,19.6659V21.9417H65V19.6659C65,17.6816 63.4417,16 61.4686,16Z" fill="#ffffff"/>
    <path d="M31.1435,44.5874H29.2377V49.0717H31.1435V44.5874Z" fill="#ffffff"/>
    <path d="M31.1435,40.4395H29.2377V42.7937H31.1435V40.4395Z" fill="#ffffff"/>
    <path d="M44.148,32.8162H42.2421V42.7937H44.148V32.8162Z" fill="#ffffff"/>
    <path d="M50.7623,30.0134H48.7444V42.7937H50.7623V30.0134Z" fill="#ffffff"/>
    <path d="M44.148,44.5874H42.2421V49.0717H44.148V44.5874Z" fill="#ffffff"/>
    <path d="M50.7623,44.5874H48.7444V49.0717H50.7623V44.5874Z" fill="#ffffff"/>
    <path d="M50.796,63.2645C50.8072,63.2309 50.796,63.2309 50.796,63.2309L40.5045,55.7982L40.4933,55.787L40.4821,55.7758C40.4596,55.7646 40.4484,55.7533 40.426,55.7421C40.4148,55.7309 40.4036,55.7309 40.3924,55.7309C40.3812,55.7197 40.3587,55.7197 40.3475,55.7085C40.3363,55.6973 40.3251,55.6973 40.3027,55.6973C40.2803,55.6973 40.2803,55.6861 40.2578,55.6861C40.2466,55.6861 40.2242,55.6749 40.213,55.6749C40.2018,55.6749 40.1906,55.6637 40.1794,55.6637C40.1682,55.6637 40.1457,55.6524 40.1345,55.6524C40.1233,55.6524 40.1121,55.6524 40.1009,55.6412C40.0897,55.6412 40.0673,55.6412 40.0561,55.6412C40.0448,55.6412 40.0336,55.6412 40.0112,55.6412C39.9888,55.6412 39.9888,55.6412 39.9664,55.6412C39.9552,55.6412 39.9327,55.6412 39.9215,55.6412C39.9103,55.6412 39.8991,55.6412 39.8879,55.6412C39.8655,55.6412 39.8543,55.6412 39.8318,55.6524C39.8206,55.6524 39.8094,55.6524 39.7982,55.6524C39.7758,55.6524 39.7646,55.6637 39.7421,55.6637C39.7309,55.6637 39.7197,55.6749 39.7085,55.6749C39.6861,55.6749 39.6749,55.6861 39.6525,55.6861C39.6413,55.6861 39.63,55.6973 39.6188,55.6973C39.6076,55.7085 39.5852,55.7085 39.574,55.7197C39.5628,55.7309 39.5404,55.7309 39.5291,55.7421C39.5179,55.7421 39.5067,55.7533 39.4955,55.7646C39.4731,55.7758 39.4619,55.787 39.4395,55.7982C39.4282,55.7982 39.4282,55.8094 39.417,55.8094L39.4058,55.8206L29.1256,63.2533C28.722,63.5336 28.6211,64.0941 28.9126,64.5089C29.204,64.9237 29.7534,65.0134 30.1682,64.7219L30.1794,64.7107L39.9552,57.648L49.7309,64.7107C50.1345,65.0022 50.6951,64.9237 50.9865,64.5201C51.278,64.1166 51.1995,63.556 50.796,63.2645Z" fill="#ffffff"/>
</svg>