<svg width="110" height="110" viewBox="0 0 110 110" fill="none" xmlns="http://www.w3.org/2000/svg">
<g clip-path="url(#clip0_4527:10851)">
<path d="M39.5432 41.2143C40.4735 41.2143 41.2279 40.4601 41.2279 39.5297V22.0943C41.2279 21.1639 40.4735 20.4097 39.5432 20.4097H22.1075C21.1772 20.4097 20.4229 21.1639 20.4229 22.0943V39.5297C20.4229 40.4601 21.1772 41.2143 22.1075 41.2143H39.5432ZM23.7922 23.779H37.8585V37.845H23.7922V23.779Z" fill="white"/>
<path d="M34.3642 27.2734H27.2886V34.3491H34.3642V27.2734Z" fill="white"/>
<path d="M87.8923 20.4097H70.4566C69.5264 20.4097 68.772 21.1639 68.772 22.0943V39.5297C68.772 40.4601 69.5264 41.2143 70.4566 41.2143H87.8923C88.8224 41.2143 89.577 40.4601 89.577 39.5297V22.0943C89.577 21.1639 88.8227 20.4097 87.8923 20.4097ZM86.2076 37.845H72.1413V23.779H86.2076V37.845Z" fill="white"/>
<path d="M82.7123 27.2734H75.6367V34.3491H82.7123V27.2734Z" fill="white"/>
<path d="M87.8923 68.7842H70.4566C69.5264 68.7842 68.772 69.5384 68.772 70.4688V87.9042C68.772 88.8343 69.5264 89.5888 70.4566 89.5888H87.8923C88.8224 89.5888 89.577 88.8343 89.577 87.9042V70.4688C89.577 69.5384 88.8227 68.7842 87.8923 68.7842ZM86.2076 86.2197H72.1413V72.1537H86.2076V86.2197Z" fill="white"/>
<path d="M82.7123 75.6494H75.6367V82.725H82.7123V75.6494Z" fill="white"/>
<path d="M30.8688 69.9706V62.3999H40.0502C40.2826 62.3999 40.4714 62.2109 40.4714 61.9787V53.9868C40.4714 53.7547 40.2826 53.5656 40.0502 53.5656H30.8688V45.9949C30.8688 45.7628 30.6799 45.5737 30.4476 45.5737H20.845C20.6127 45.5737 20.4238 45.7628 20.4238 45.9949V53.9868C20.4238 54.219 20.6127 54.408 20.845 54.408H30.0265V61.5576H20.845C20.6127 61.5576 20.4238 61.7464 20.4238 61.9787V69.9706C20.4238 70.2026 20.6127 70.3918 20.845 70.3918H30.4476C30.6801 70.3918 30.8688 70.2028 30.8688 69.9706Z" fill="white"/>
<path d="M45.4788 50.4209C45.2465 50.4209 45.0576 50.6099 45.0576 50.8421V60.1468C45.0576 60.379 45.2465 60.568 45.4788 60.568H54.7836C55.0159 60.568 55.2047 60.379 55.2047 60.1468V50.8421C55.2047 50.6099 55.0159 50.4209 54.7836 50.4209H45.4788Z" fill="white"/>
<path d="M52.0476 39.1658H63.4043C63.6367 39.1658 63.8255 38.9768 63.8255 38.7447V27.388C63.8255 27.1558 63.6367 26.9668 63.4043 26.9668H52.0476C51.8153 26.9668 51.6265 27.1558 51.6265 27.388V38.7447C51.6265 38.9768 51.8155 39.1658 52.0476 39.1658Z" fill="white"/>
<path d="M62.6479 44.8636V53.3944C62.6479 53.6265 62.8368 53.8155 63.0691 53.8155H71.6001C71.8324 53.8155 72.0213 53.6265 72.0213 53.3944V44.8636C72.0213 44.6314 71.8324 44.4424 71.6001 44.4424H63.0691C62.8368 44.4424 62.6479 44.6314 62.6479 44.8636Z" fill="white"/>
<path d="M35.5411 74.0503H29.5627C29.3303 74.0503 29.1415 74.2395 29.1415 74.4715V80.0289H20.845C20.6127 80.0289 20.4238 80.2177 20.4238 80.45V89.1675C20.4238 89.3998 20.6127 89.5887 20.845 89.5887H29.5627C29.795 89.5887 29.9838 89.3998 29.9838 89.1675V80.8712H35.5411C35.7734 80.8712 35.9622 80.682 35.9622 80.45V74.4715C35.9622 74.2395 35.7734 74.0503 35.5411 74.0503Z" fill="white"/>
<path d="M65.4055 68.0723H59.4271C59.1948 68.0723 59.0059 68.2613 59.0059 68.4934V74.0505H53.8701V68.4934C53.8701 68.2613 53.6812 68.0723 53.4489 68.0723H47.4705C47.2382 68.0723 47.0493 68.2613 47.0493 68.4934V74.4717C47.0493 74.704 47.2382 74.8928 47.4705 74.8928H53.0277V80.0291H44.7312C44.4989 80.0291 44.3101 80.2179 44.3101 80.4502V89.1677C44.3101 89.4 44.4989 89.5889 44.7312 89.5889H53.4489C53.6812 89.5889 53.8701 89.4 53.8701 89.1677V80.8714H59.4271C59.6594 80.8714 59.8483 80.6822 59.8483 80.4502V74.8928H65.4055C65.6378 74.8928 65.8267 74.704 65.8267 74.4717V68.4934C65.8267 68.2613 65.6378 68.0723 65.4055 68.0723Z" fill="white"/>
<path d="M49.4648 45.5075V39.5291C49.4648 39.2969 49.2759 39.1079 49.0436 39.1079H43.0652C42.8331 39.1079 42.644 39.2969 42.644 39.5291V45.5075C42.644 45.7396 42.8331 45.9286 43.0652 45.9286H49.0436C49.2759 45.9286 49.4648 45.7396 49.4648 45.5075Z" fill="white"/>
<path d="M51.8783 26.8092V20.8308C51.8783 20.5987 51.6895 20.4097 51.4572 20.4097H45.4788C45.2465 20.4097 45.0576 20.5987 45.0576 20.8308V26.8092C45.0576 27.0414 45.2465 27.2304 45.4788 27.2304H51.457C51.6897 27.2304 51.8783 27.0415 51.8783 26.8092Z" fill="white"/>
<path d="M89.1558 51.4184C89.3881 51.4184 89.5769 51.2294 89.5769 50.9972V45.0188C89.5769 44.7867 89.3881 44.5977 89.1558 44.5977H83.1774C82.9451 44.5977 82.7562 44.7867 82.7562 45.0188V50.576H77.199C76.9667 50.576 76.7778 50.7651 76.7778 50.9972V56.9756C76.7778 57.2078 76.9667 57.3968 77.199 57.3968H82.7562V62.954C82.7562 63.186 82.9451 63.3752 83.1774 63.3752H89.1558C89.3881 63.3752 89.5769 63.186 89.5769 62.954V56.9756C89.5769 56.7435 89.3881 56.5544 89.1558 56.5544H83.5986V51.4184H89.1558Z" fill="white"/>
</g>
<path d="M98.6924 27.6925H109.616V0.384766H82.3078V11.3078H98.6924V27.6925Z" fill="white"/>
<path d="M109.616 82.3078V109.616H82.3078V98.6925H98.6924V82.3078H109.616Z" fill="white"/>
<path d="M27.6925 109.616H0.384766V82.3078H11.3078V98.6925H27.6925V109.616Z" fill="white"/>
<path d="M0.384766 27.6925V0.384766H27.6925V11.3078H11.3078V27.6925H0.384766Z" fill="white"/>
<defs>
<clipPath id="clip0_4527:10851">
<rect width="69.1795" height="69.1795" fill="white" transform="translate(20.4106 20.4097)"/>
</clipPath>
</defs>
</svg>
