<svg width="110" height="110" viewBox="0 0 110 110" fill="none" xmlns="http://www.w3.org/2000/svg">
<path d="M98.6924 27.6925H109.616V0.384766H82.3078V11.3078H98.6924V27.6925Z" fill="white"/>
<path d="M109.616 82.3078V109.616H82.3078V98.6924H98.6924V82.3078H109.616Z" fill="white"/>
<path d="M27.6925 109.616H0.384766V82.3078H11.3078V98.6924H27.6925V109.616Z" fill="white"/>
<path d="M0.384766 27.6925V0.384766H27.6925V11.3078H11.3078V27.6925H0.384766Z" fill="white"/>
<g clip-path="url(#clip0_4527:10893)">
<path d="M83.3192 18.5898H26.681C22.2309 18.5898 18.5898 22.2309 18.5898 26.681V83.3192C18.5898 87.7693 22.2309 91.4104 26.681 91.4104H83.3192C87.7693 91.4104 91.4104 87.7693 91.4104 83.3192V26.681C91.4104 22.2309 87.7693 18.5898 83.3192 18.5898ZM26.681 26.681H83.3192V75.228L67.1369 50.9545L50.1454 76.0371L38.0087 59.0457L26.681 75.6326V26.681Z" fill="white"/>
</g>
<defs>
<clipPath id="clip0_4527:10893">
<rect width="72.8205" height="72.8205" fill="white" transform="translate(18.5898 18.5898)"/>
</clipPath>
</defs>
</svg>
