<svg width="118" height="120" viewBox="0 0 118 120" fill="none" xmlns="http://www.w3.org/2000/svg">
<path d="M107.742 63.9064C106.793 62.8267 106.27 61.4386 106.27 60.0014C106.27 58.5642 106.793 57.1761 107.742 56.0964L115.315 47.5764C116.15 46.6455 116.668 45.4742 116.796 44.2305C116.923 42.9869 116.653 41.7348 116.025 40.6539L104.192 20.1822C103.57 19.1025 102.623 18.2467 101.487 17.7368C100.35 17.2268 99.081 17.0887 97.8611 17.3422L86.7378 19.5905C85.3224 19.883 83.8489 19.6473 82.5954 18.9279C81.3419 18.2085 80.3951 17.0552 79.9336 15.6855L76.3244 4.85804C75.9275 3.68287 75.1713 2.66216 74.1627 1.94019C73.154 1.21822 71.944 0.831505 70.7036 0.834707H47.0369C45.7467 0.767363 44.4699 1.12419 43.4015 1.85068C42.3332 2.57718 41.532 3.6334 41.1203 4.85804L37.8069 15.6855C37.3454 17.0552 36.3986 18.2085 35.1451 18.9279C33.8916 19.6473 32.4181 19.883 31.0028 19.5905L19.5836 17.3422C18.4272 17.1788 17.2483 17.3613 16.1954 17.8667C15.1425 18.372 14.2628 19.1777 13.6669 20.1822L1.83361 40.6539C1.18965 41.7227 0.900096 42.9678 1.00636 44.2111C1.11263 45.4544 1.60927 46.6323 2.42528 47.5764L9.93945 56.0964C10.888 57.1761 11.4111 58.5642 11.4111 60.0014C11.4111 61.4386 10.888 62.8267 9.93945 63.9064L2.42528 72.4264C1.60927 73.3704 1.11263 74.5483 1.00636 75.7916C0.900096 77.035 1.18965 78.28 1.83361 79.3489L13.6669 99.8205C14.2888 100.9 15.2356 101.756 16.3724 102.266C17.5091 102.776 18.7779 102.914 19.9978 102.661L31.1211 100.412C32.5365 100.12 34.0099 100.355 35.2634 101.075C36.5169 101.794 37.4638 102.948 37.9253 104.317L41.5344 115.145C41.9461 116.369 42.7473 117.426 43.8157 118.152C44.8841 118.879 46.1609 119.235 47.4511 119.168H71.1178C72.3582 119.171 73.5682 118.785 74.5768 118.063C75.5855 117.341 76.3417 116.32 76.7386 115.145L80.3478 104.317C80.8093 102.948 81.7561 101.794 83.0096 101.075C84.2631 100.355 85.7366 100.12 87.1519 100.412L98.2753 102.661C99.4951 102.914 100.764 102.776 101.901 102.266C103.037 101.756 103.984 100.9 104.606 99.8205L116.439 79.3489C117.068 78.268 117.337 77.0159 117.21 75.7722C117.082 74.5286 116.564 73.3573 115.729 72.4264L107.742 63.9064ZM98.9261 71.8347L103.659 77.1597L96.0861 90.2947L89.1044 88.8747C84.8431 88.0036 80.4103 88.7275 76.6475 90.9089C72.8846 93.0902 70.0536 96.5773 68.6919 100.708L66.4436 107.335H51.2969L49.1669 100.59C47.8053 96.4589 44.9743 92.9719 41.2114 90.7906C37.4486 88.6092 33.0158 87.8853 28.7544 88.7564L21.7728 90.1764L14.0811 77.1006L18.8144 71.7756C21.7252 68.5212 23.3344 64.3083 23.3344 59.9422C23.3344 55.5761 21.7252 51.3632 18.8144 48.1089L14.0811 42.7839L21.6544 29.7672L28.6361 31.1872C32.8974 32.0583 37.3302 31.3344 41.0931 29.1531C44.8559 26.9717 47.6869 23.4846 49.0486 19.3539L51.2969 12.668H66.4436L68.6919 19.413C70.0536 23.5438 72.8846 27.0308 76.6475 29.2122C80.4103 31.3936 84.8431 32.1174 89.1044 31.2464L96.0861 29.8264L103.659 42.9614L98.9261 48.2864C96.048 51.5332 94.4589 55.7217 94.4589 60.0606C94.4589 64.3993 96.048 68.5879 98.9261 71.8347ZM58.8703 36.3347C54.1895 36.3347 49.6137 37.7227 45.7218 40.3233C41.8298 42.9238 38.7964 46.62 37.0051 50.9445C35.2139 55.2691 34.7452 60.0276 35.6584 64.6185C36.5715 69.2094 38.8256 73.4264 42.1354 76.7362C45.4453 80.0461 49.6623 82.3001 54.2531 83.2133C58.844 84.1265 63.6026 83.6578 67.9271 81.8665C72.2516 80.0753 75.9479 77.0418 78.5484 73.1499C81.1489 69.2579 82.5369 64.6822 82.5369 60.0014C82.5369 53.7246 80.0435 47.7049 75.6051 43.2665C71.1668 38.8282 65.1471 36.3347 58.8703 36.3347ZM58.8703 71.8347C56.5299 71.8347 54.242 71.1407 52.296 69.8404C50.35 68.5402 48.8333 66.6921 47.9377 64.5298C47.0421 62.3675 46.8077 59.9883 47.2643 57.6928C47.7209 55.3974 48.8479 53.2889 50.5028 51.634C52.1578 49.979 54.2663 48.852 56.5617 48.3954C58.8572 47.9388 61.2364 48.1732 63.3987 49.0688C65.561 49.9644 67.4091 51.4812 68.7093 53.4271C70.0096 55.3731 70.7036 57.661 70.7036 60.0014C70.7036 63.1398 69.4569 66.1496 67.2377 68.3688C65.0185 70.588 62.0087 71.8347 58.8703 71.8347Z" fill="white"/>
</svg>
