<svg width="83" height="113" viewBox="0 0 83 113" fill="none" xmlns="http://www.w3.org/2000/svg">
<path d="M41.5451 71.5639C51.3667 71.5639 59.2359 63.6356 59.2359 53.814L59.2951 18.314C59.2951 8.4923 51.3667 0.563965 41.5451 0.563965C31.7234 0.563965 23.7951 8.4923 23.7951 18.314V53.814C23.7951 63.6356 31.7234 71.5639 41.5451 71.5639ZM72.9034 53.814C72.9034 71.5639 57.8751 83.989 41.5451 83.989C25.2151 83.989 10.1867 71.5639 10.1867 53.814H0.128418C0.128418 73.9898 16.2218 90.6748 35.6284 93.5739V112.981H47.4618V93.5739C66.8684 90.7339 82.9617 74.049 82.9617 53.814H72.9034Z" fill="white"/>
</svg>
