<svg width="96" height="113" viewBox="0 0 96 113" fill="none" xmlns="http://www.w3.org/2000/svg">
<path d="M48.5915 112.387C56.2832 112.387 62.7915 105.879 62.7915 98.187H34.3915C34.3915 105.879 40.8998 112.387 48.5915 112.387ZM83.4998 80.437V50.8537C83.4998 32.512 74.0332 17.7203 56.8748 13.5787V9.43701C56.8748 4.70368 52.7332 0.562012 47.9998 0.562012C43.2665 0.562012 39.1248 4.70368 39.1248 9.43701V13.5787C21.9665 17.7203 12.4998 32.512 12.4998 50.8537V80.437L0.666504 92.2703V98.187H95.3332V92.2703L83.4998 80.437ZM71.6665 86.3537H24.3332V50.8537C24.3332 36.062 33.2082 24.2287 47.9998 24.2287C62.7915 24.2287 71.6665 36.062 71.6665 50.8537V86.3537Z" fill="white"/>
</svg>
