<svg width="111" height="111" viewBox="0 0 111 111" fill="none" xmlns="http://www.w3.org/2000/svg">
<path d="M83.5833 99.5997H12.5833V27.4163H54V15.583H12.5833C6.075 15.583 0.75 20.908 0.75 27.4163V98.4163C0.75 104.925 6.075 110.25 12.5833 110.25H83.5833C90.0917 110.25 95.4167 104.925 95.4167 98.4163V56.9997H83.5833V99.5997Z" fill="white"/>
<path d="M71.7498 39.25H24.4165V51.0833H71.7498V39.25Z" fill="white"/>
<path d="M24.4165 57V68.8333H71.7498V57H53.9998H24.4165Z" fill="white"/>
<path d="M71.7498 74.75H24.4165V86.5833H71.7498V74.75Z" fill="white"/>
<path d="M88.9084 0.791504C77.0751 0.791504 67.6084 10.2582 67.6084 22.0915C67.6084 33.9248 77.0751 43.3915 88.9084 43.3915C100.742 43.3915 110.208 33.9248 110.208 22.0915C110.8 10.2582 100.742 0.791504 88.9084 0.791504ZM91.2751 36.2915C90.6834 36.8832 90.6834 37.4748 90.0917 37.4748C89.5001 37.4748 88.9084 38.0665 88.3167 38.0665C87.1334 38.0665 86.5417 37.4748 85.9501 36.8832C85.3584 36.2915 84.7667 35.1082 84.7667 34.5165C84.7667 33.9248 85.3584 32.7415 85.9501 32.1498C86.5417 31.5582 87.7251 30.9665 88.3167 30.9665C88.9084 30.9665 89.5001 30.9665 90.0917 31.5582C90.6834 32.1498 91.2751 32.1498 91.2751 32.7415C91.2751 33.3332 91.8667 33.9248 91.8667 34.5165C91.8667 35.6998 91.8667 36.2915 91.2751 36.2915ZM100.742 18.5415C100.15 19.7248 99.5584 20.3165 98.9667 20.9082C98.3751 21.4998 97.1917 22.0915 95.4167 23.2748C94.8251 23.8665 94.2334 23.8665 93.6417 24.4582C93.0501 25.0498 92.4584 25.0498 92.4584 25.6415C91.8667 25.6415 91.8667 26.2332 91.8667 26.8248C91.8667 27.4165 91.8667 28.0082 91.8667 28.0082V28.5998H84.7667V25.6415C84.7667 24.4582 84.7667 23.2748 85.3584 22.6832C85.9501 22.0915 86.5417 20.9082 87.7251 20.3165C88.3167 19.7248 89.5001 19.1332 90.6834 18.5415C91.8667 17.9498 93.0501 16.7665 93.6417 16.1748C94.2334 15.5832 94.2334 14.9915 94.2334 14.3998C94.2334 13.2165 94.2334 12.6248 93.0501 12.6248C92.4584 12.0332 91.8667 12.0332 90.6834 12.0332C89.5001 12.0332 88.9084 12.0332 88.3167 13.2165C87.7251 13.8082 87.7251 14.9915 87.7251 16.1748V15.5832H80.6251V8.48317C83.5834 6.70817 86.5417 5.52484 90.6834 5.52484C94.2334 5.52484 97.1917 6.1165 98.9667 7.8915C100.742 9.07484 101.333 11.4415 101.333 14.3998C101.333 16.1748 101.333 17.3582 100.742 18.5415Z" fill="white"/>
</svg>
