<svg width="121" height="108" viewBox="0 0 121 108" fill="none" xmlns="http://www.w3.org/2000/svg">
<path d="M93.1333 69.9761H66.5083V78.8511H93.1333V69.9761Z" fill="white"/>
<path d="M45.7998 56.9585C45.7998 61.6918 41.6581 65.8335 36.9248 65.8335C32.1915 65.8335 28.0498 61.6918 28.0498 56.9585C28.0498 54.5918 28.6415 52.8168 29.8248 51.0418C31.5998 49.2668 33.9665 48.0835 36.9248 48.0835C41.0665 48.0835 44.6165 51.0418 45.7998 55.1835C45.7998 55.1835 45.7998 55.7752 45.7998 56.9585Z" fill="white"/>
<path d="M49.3498 72.3427C45.7998 70.5677 41.6581 69.9761 36.9248 69.9761C32.1915 69.9761 28.0498 71.1594 24.4998 72.3427C20.9498 73.5261 19.1748 77.0761 19.1748 80.6261V83.5844H54.6748V81.2178C54.6748 77.0761 52.3081 74.1177 49.3498 72.3427Z" fill="white"/>
<path d="M93.1333 52.2261H66.5083V61.1011H93.1333V52.2261Z" fill="white"/>
<path d="M100.234 25.0079C100.234 25.0079 100.234 25.5996 100.234 25.0079C100.234 26.1912 100.234 26.7829 99.6423 26.7829V31.5162H97.2756V26.7829C96.6839 26.7829 96.0923 26.1912 96.0923 25.0079C96.0923 23.8246 96.6839 23.2329 97.8673 23.2329C99.0506 23.2329 99.6423 24.4162 100.234 25.0079Z" fill="white"/>
<path d="M103.192 13.1756V18.5006H93.1338V13.1756C93.1338 11.4006 94.3171 10.2173 96.0921 10.2173H100.234C101.417 10.2173 103.192 11.4006 103.192 13.1756Z" fill="white"/>
<path d="M93.7254 1.34179C86.0338 3.11679 79.5254 9.03345 77.7504 16.7251C74.2004 30.9251 84.8504 43.9418 98.4588 43.9418C110.292 43.9418 120.35 34.4751 120.35 22.6418C119.759 9.03345 107.334 -1.02488 93.7254 1.34179ZM106.742 36.8418H89.5838C88.4004 36.8418 87.8088 36.2501 87.8088 35.0668V18.5001H90.7671V13.1751C90.7671 10.2168 93.1338 7.25845 96.6838 7.25845H100.825C103.784 7.25845 106.742 9.62512 106.742 13.1751V18.5001H109.7V34.4751C108.517 35.6585 107.925 36.8418 106.742 36.8418Z" fill="white"/>
<path d="M100.825 52.8168V96.0085H12.075V23.8252H66.5084V12.5835H12.075C5.5667 12.5835 0.241699 17.9085 0.241699 24.4168V95.4168C0.241699 101.925 5.5667 107.25 12.075 107.25H100.233C106.742 107.25 112.067 101.925 112.067 95.4168V53.4085H100.825V52.8168Z" fill="white"/>
</svg>
