<svg width="120" height="120" viewBox="0 0 120 120" fill="none" xmlns="http://www.w3.org/2000/svg">
<path d="M59.941 0.833496C27.281 0.833496 0.833496 27.3402 0.833496 60.0002C0.833496 92.6602 27.281 119.167 59.941 119.167C92.6602 119.167 119.167 92.6602 119.167 60.0002C119.167 27.3402 92.6602 0.833496 59.941 0.833496ZM100.944 36.3335H83.4893C81.6375 29.0055 78.8955 21.9317 75.3243 15.2702C86.117 18.9858 95.2113 26.4629 100.944 36.3335ZM60.0002 12.9035C64.911 20.0035 68.7568 27.8727 71.301 36.3335H48.6993C51.2435 27.8727 55.0893 20.0035 60.0002 12.9035ZM14.2052 71.8335C13.2585 68.0468 12.6668 64.0827 12.6668 60.0002C12.6668 55.9177 13.2585 51.9535 14.2052 48.1668H34.2035C33.7302 52.0718 33.3752 55.9768 33.3752 60.0002C33.3752 64.0235 33.7302 67.9285 34.2035 71.8335H14.2052ZM19.0568 83.6668H36.511C38.4043 91.0627 41.126 98.1627 44.676 104.73C33.872 101.035 24.7713 93.5525 19.0568 83.6668ZM36.511 36.3335H19.0568C24.7713 26.4478 33.872 18.9655 44.676 15.2702C41.1049 21.9317 38.3628 29.0055 36.511 36.3335ZM60.0002 107.097C55.0893 99.9968 51.2435 92.1277 48.6993 83.6668H71.301C68.7568 92.1277 64.911 99.9968 60.0002 107.097ZM73.8452 71.8335H46.1552C45.6227 67.9285 45.2085 64.0235 45.2085 60.0002C45.2085 55.9768 45.6227 52.0127 46.1552 48.1668H73.8452C74.3777 52.0127 74.7918 55.9768 74.7918 60.0002C74.7918 64.0235 74.3777 67.9285 73.8452 71.8335ZM75.3243 104.73C78.8743 98.1627 81.596 91.0627 83.4893 83.6668H100.944C95.2113 93.5375 86.117 101.014 75.3243 104.73ZM85.7968 71.8335C86.2702 67.9285 86.6252 64.0235 86.6252 60.0002C86.6252 55.9768 86.2702 52.0718 85.7968 48.1668H105.795C106.742 51.9535 107.334 55.9177 107.334 60.0002C107.334 64.0827 106.742 68.0468 105.795 71.8335H85.7968Z" fill="white"/>
</svg>
