<svg width="56" height="49" viewBox="0 0 56 49" fill="none" xmlns="http://www.w3.org/2000/svg">
<path d="M26.7649 43.087L44.5172 2.0142C44.5227 2.0011 44.517 1.98676 44.5219 1.9735C44.5743 1.83703 44.5878 1.69104 44.573 1.54084C44.5688 1.49584 44.5644 1.45654 44.5538 1.41258C44.5455 1.37775 44.5509 1.34257 44.5383 1.30794C44.4926 1.18155 44.4224 1.07147 44.3361 0.979246C44.3355 0.978693 44.3357 0.977864 44.3357 0.977864C44.3329 0.975035 44.3293 0.974929 44.3271 0.972654C44.2136 0.854436 44.0692 0.781256 43.9145 0.733459C43.8756 0.721429 43.8415 0.712208 43.8015 0.705181C43.6411 0.676426 43.4754 0.673331 43.3111 0.732781L1.85727 15.7303C1.69109 15.7904 1.56469 15.9005 1.4594 16.0273C1.43331 16.0584 1.41286 16.0872 1.39088 16.1212C1.30052 16.2618 1.23484 16.4165 1.22667 16.5858C1.22667 16.5858 1.22596 16.5871 1.22601 16.5877C1.21978 16.7163 1.24018 16.8413 1.2822 16.9575C1.32503 17.0758 1.39144 17.1841 1.47653 17.2773C1.56242 17.3713 1.66474 17.4468 1.77821 17.4998L18.598 25.3825L24.9836 43.0327C25.1173 43.4024 25.4627 43.6526 25.8562 43.6646C26.2487 43.6768 26.6089 43.448 26.7649 43.087Z" fill="#FD6925"/>
</svg>
