<svg width="40" height="39" viewBox="0 0 40 39" fill="none" xmlns="http://www.w3.org/2000/svg">
<path d="M22.5176 9.63748C21.797 8.91692 20.8963 8.55664 19.9956 8.55664C19.0949 8.55664 18.1942 8.91692 17.4737 9.63748C16.8432 10.268 16.4829 11.1687 16.4829 12.0694C16.4829 12.9701 16.8432 13.8708 17.4737 14.5913C18.1042 15.2218 19.0049 15.6722 19.9956 15.6722C20.8963 15.6722 21.797 15.3119 22.5176 14.5913C23.1481 13.9608 23.5084 13.0601 23.5084 12.0694C23.5084 11.1687 23.1481 10.268 22.5176 9.63748ZM22.5176 9.63748C21.797 8.91692 20.8963 8.55664 19.9956 8.55664C19.0949 8.55664 18.1942 8.91692 17.4737 9.63748C16.8432 10.268 16.4829 11.1687 16.4829 12.0694C16.4829 12.9701 16.8432 13.8708 17.4737 14.5913C18.1042 15.2218 19.0049 15.6722 19.9956 15.6722C20.8963 15.6722 21.797 15.3119 22.5176 14.5913C23.1481 13.9608 23.5084 13.0601 23.5084 12.0694C23.5084 11.1687 23.1481 10.268 22.5176 9.63748ZM22.5176 9.63748C21.797 8.91692 20.8963 8.55664 19.9956 8.55664C19.0949 8.55664 18.1942 8.91692 17.4737 9.63748C16.8432 10.268 16.4829 11.1687 16.4829 12.0694C16.4829 12.9701 16.8432 13.8708 17.4737 14.5913C18.1042 15.2218 19.0049 15.6722 19.9956 15.6722C20.8963 15.6722 21.797 15.3119 22.5176 14.5913C23.1481 13.9608 23.5084 13.0601 23.5084 12.0694C23.5084 11.1687 23.1481 10.268 22.5176 9.63748Z" fill="white"/>
<path d="M33.2358 22.4274H28.4621C30.4437 19.4551 32.0649 15.8523 32.0649 12.1594C32.0649 5.31413 26.7508 0 19.9055 0C13.0602 0 7.83609 5.31413 7.83609 12.0694C7.83609 15.7622 9.54742 19.4551 11.4389 22.3374H6.75525L0 38.0996H39.9911L33.2358 22.4274ZM11.4389 12.0694C11.4389 7.29567 15.2218 3.51273 19.9955 3.51273C24.7693 3.51273 28.5522 7.29567 28.5522 12.0694C28.5522 15.7622 26.3004 19.6353 24.1388 22.3374C23.9586 22.6076 23.7785 22.7877 23.5983 22.9678C22.2473 24.6792 20.8962 26.0302 19.9955 26.8409C19.0948 25.9402 17.7438 24.5891 16.3927 22.9678C16.2126 22.7877 16.0325 22.5175 15.8523 22.3374C13.6906 19.6353 11.4389 15.8523 11.4389 12.0694ZM9.09707 26.0302H14.141C15.9424 28.1919 17.6537 29.7231 18.3743 30.4437C18.4644 30.5337 18.5544 30.6238 18.6445 30.7139C18.7346 30.8039 18.8246 30.8039 18.8246 30.8039L19.9955 31.7947L21.1664 30.8039C21.1664 30.8039 21.2565 30.7139 21.3466 30.7139C21.4367 30.6238 21.5267 30.5337 21.6168 30.4437C22.4274 29.7231 24.0487 28.1919 25.8501 26.0302H30.894L34.4968 34.4968H5.49427L9.09707 26.0302Z" fill="white"/>
</svg>
