<svg width="36" height="36" viewBox="0 0 36 36" fill="none" xmlns="http://www.w3.org/2000/svg">
<path d="M7.14456 8.6415V5.1C7.14456 5.04477 7.18933 5 7.24456 5H19.9984C20.0875 5 20.1321 5.10771 20.0691 5.17071L4.40915 20.8306C4.37009 20.8697 4.30678 20.8697 4.26772 20.8306L2.07071 18.6336C2.03166 18.5946 2.03166 18.5313 2.07071 18.4922L11.6507 8.91221C11.7137 8.84921 11.6691 8.7415 11.58 8.7415H7.24456C7.18933 8.7415 7.14456 8.69673 7.14456 8.6415Z" fill="white"/>
<path d="M19.7721 21.0016L19.7721 24.5431C19.7721 24.5983 19.7273 24.6431 19.6721 24.6431L6.91825 24.6431C6.82916 24.6431 6.78454 24.5354 6.84754 24.4724L22.5075 8.81242C22.5465 8.77336 22.6099 8.77336 22.6489 8.81242L24.8459 11.0094C24.885 11.0485 24.885 11.1118 24.8459 11.1509L15.2659 20.7309C15.2029 20.7939 15.2475 20.9016 15.3366 20.9016L19.6721 20.9016C19.7273 20.9016 19.7721 20.9463 19.7721 21.0016Z" fill="white"/>
<rect x="22.1666" y="18.2271" width="5.5" height="5.5" fill="white"/>
<rect x="22.1666" y="25.5601" width="5.5" height="5.5" fill="white"/>
<rect x="29.5" y="18.2266" width="5.5" height="5.5" fill="white"/>
<rect x="29.5" y="25.5601" width="5.5" height="5.5" fill="white"/>
</svg>
