<svg width="38" height="36" viewBox="0 0 38 36" fill="none" xmlns="http://www.w3.org/2000/svg">
<path d="M7.14456 8.6415V5.1C7.14456 5.04477 7.18933 5 7.24456 5H19.9984C20.0875 5 20.1321 5.10771 20.0691 5.17071L4.40915 20.8306C4.37009 20.8697 4.30678 20.8697 4.26772 20.8306L2.07071 18.6336C2.03166 18.5946 2.03166 18.5313 2.07071 18.4922L11.6507 8.91221C11.7137 8.84921 11.6691 8.7415 11.58 8.7415H7.24456C7.18933 8.7415 7.14456 8.69673 7.14456 8.6415Z" fill="white"/>
<path d="M19.7722 21.0016L19.7722 24.5431C19.7722 24.5983 19.7274 24.6431 19.6722 24.6431L6.91837 24.6431C6.82928 24.6431 6.78467 24.5354 6.84766 24.4724L22.5076 8.81242C22.5467 8.77336 22.61 8.77336 22.649 8.81242L24.846 11.0094C24.8851 11.0485 24.8851 11.1118 24.846 11.1509L15.266 20.7309C15.203 20.7939 15.2477 20.9016 15.3367 20.9016L19.6722 20.9016C19.7274 20.9016 19.7722 20.9463 19.7722 21.0016Z" fill="white"/>
<path d="M29 14C25.2527 14 22.2148 17.0378 22.2148 20.7852C22.2148 22.0384 22.4601 23.3327 23.1641 24.2656L29 32L34.8359 24.2656C35.4753 23.4183 35.7851 21.9203 35.7851 20.7852C35.7852 17.0378 32.7473 14 29 14ZM29 17.9298C30.5767 17.9298 31.8553 19.2084 31.8553 20.7851C31.8553 22.3619 30.5767 23.6405 29 23.6405C27.4233 23.6405 26.1447 22.3619 26.1447 20.7852C26.1447 19.2084 27.4233 17.9298 29 17.9298Z" fill="white"/>
</svg>
