<svg width="40" height="40" viewBox="0 0 40 40" fill="none" xmlns="http://www.w3.org/2000/svg">
<path d="M19.9999 0.833496C9.41992 0.833496 0.833252 9.42016 0.833252 20.0002C0.833252 30.5802 9.41992 39.1668 19.9999 39.1668C30.5799 39.1668 39.1666 30.5802 39.1666 20.0002C39.1666 9.42016 30.5799 0.833496 19.9999 0.833496ZM19.9999 35.3335C11.5474 35.3335 4.66659 28.4527 4.66659 20.0002C4.66659 11.5477 11.5474 4.66683 19.9999 4.66683C28.4524 4.66683 35.3333 11.5477 35.3333 20.0002C35.3333 28.4527 28.4524 35.3335 19.9999 35.3335ZM9.45825 30.5418L23.8524 23.8527L30.5416 9.4585L16.1474 16.1477L9.45825 30.5418ZM19.9999 17.8918C21.1691 17.8918 22.1083 18.831 22.1083 20.0002C22.1083 21.1693 21.1691 22.1085 19.9999 22.1085C18.8308 22.1085 17.8916 21.1693 17.8916 20.0002C17.8916 18.831 18.8308 17.8918 19.9999 17.8918Z" fill="white"/>
</svg>
