<svg width="34" height="34" viewBox="0 0 34 34" fill="none" xmlns="http://www.w3.org/2000/svg">
<path d="M24.7083 21.8331H23.1941L22.6575 21.3156C24.9575 18.6322 26.1458 14.9714 25.4941 11.0806C24.5933 5.75223 20.1466 1.49723 14.78 0.845568C6.67248 -0.151099 -0.150855 6.67223 0.845812 14.7797C1.49748 20.1464 5.75248 24.5931 11.0808 25.4939C14.9716 26.1456 18.6325 24.9572 21.3158 22.6572L21.8333 23.1939V24.7081L29.9791 32.8539C30.765 33.6397 32.0491 33.6397 32.835 32.8539C33.6208 32.0681 33.6208 30.7839 32.835 29.9981L24.7083 21.8331ZM13.2083 21.8331C8.43581 21.8331 4.58331 17.9806 4.58331 13.2081C4.58331 8.43557 8.43581 4.58307 13.2083 4.58307C17.9808 4.58307 21.8333 8.43557 21.8333 13.2081C21.8333 17.9806 17.9808 21.8331 13.2083 21.8331Z" fill="white"/>
</svg>
